{"glyphs":{"0":{"ha":777,"x_min":62,"x_max":714,"o":"m 714 497 q 694 288 714 382 q 633 127 674 194 q 532 23 593 60 q 389 -14 471 -14 q 241 23 303 -14 q 140 127 180 60 q 81 289 100 194 q 62 498 62 383 q 81 707 62 614 q 140 867 100 801 q 242 970 180 934 q 390 1006 304 1006 q 532 970 471 1006 q 633 867 593 934 q 694 707 674 801 q 714 497 714 613 m 207 497 q 216 313 207 394 q 247 176 226 232 q 303 91 269 120 q 389 61 338 61 q 474 91 439 61 q 530 176 509 120 q 561 313 551 232 q 570 497 570 394 q 561 681 570 600 q 530 817 551 762 q 474 902 509 873 q 390 930 440 930 q 304 902 339 930 q 248 817 269 873 q 216 681 226 762 q 207 497 207 600 z "},"1":{"ha":777,"x_min":92,"x_max":663,"o":"m 134 0 l 134 58 l 227 58 q 271 62 250 58 q 307 76 292 65 q 331 106 322 86 q 340 158 340 125 l 340 888 q 290 829 314 855 q 245 783 267 802 q 202 754 223 764 q 161 743 182 743 q 111 764 131 743 q 92 818 92 785 q 134 831 113 823 q 179 851 155 839 q 232 882 203 864 q 294 925 260 900 l 392 997 l 481 997 l 481 158 q 490 106 481 125 q 514 76 498 86 q 550 62 530 65 q 595 58 571 58 l 663 58 l 663 0 l 134 0 z "},"2":{"ha":777,"x_min":71,"x_max":675,"o":"m 640 774 q 625 679 640 725 q 579 584 609 633 q 506 484 549 536 q 408 371 463 431 l 174 111 l 494 111 q 546 120 526 111 q 579 143 566 129 q 599 176 592 157 q 611 215 606 195 l 616 240 l 675 240 l 668 0 l 71 0 l 71 102 l 302 370 q 396 485 358 434 q 456 581 433 536 q 490 669 479 626 q 500 760 500 712 q 491 832 500 800 q 466 887 483 864 q 421 923 448 911 q 358 936 395 936 q 281 919 311 936 q 235 873 252 902 q 212 808 218 845 q 205 729 205 770 q 159 733 180 729 q 121 748 137 737 q 95 775 104 758 q 86 819 86 793 q 103 893 86 859 q 155 953 121 928 q 240 992 189 978 q 358 1006 291 1006 q 476 989 424 1006 q 565 942 528 972 q 621 869 602 912 q 640 774 640 827 z "},"3":{"ha":777,"x_min":81,"x_max":696,"o":"m 345 61 q 423 73 386 61 q 489 111 460 84 q 534 180 517 137 q 551 285 551 222 q 534 365 551 329 q 484 425 517 400 q 405 464 452 450 q 300 478 358 478 l 256 478 l 256 549 l 300 549 q 386 564 346 549 q 455 607 425 579 q 501 674 484 635 q 518 764 518 714 q 510 836 518 804 q 484 890 502 868 q 438 924 466 913 q 370 936 410 936 q 292 919 322 936 q 245 873 262 902 q 222 808 229 845 q 216 729 216 770 q 170 733 191 729 q 132 748 148 737 q 106 775 115 758 q 97 819 97 793 q 114 893 97 859 q 166 953 132 928 q 252 992 201 978 q 370 1006 302 1006 q 489 991 435 1006 q 581 948 543 976 q 640 879 619 920 q 661 785 661 838 q 645 696 661 738 q 598 622 628 655 q 528 564 568 588 q 439 529 487 541 q 494 520 465 526 q 551 501 523 513 q 606 471 580 489 q 652 426 632 452 q 684 365 672 399 q 696 283 696 330 q 681 184 696 228 q 640 107 666 140 q 579 51 614 74 q 505 14 545 28 q 425 -7 466 -1 q 343 -14 383 -14 q 225 -1 275 -14 q 143 33 176 12 q 96 82 111 54 q 81 140 81 110 q 104 206 81 182 q 168 229 128 229 q 180 162 168 193 q 214 109 192 131 q 270 74 237 86 q 345 61 302 61 z "},"4":{"ha":777,"x_min":24,"x_max":757,"o":"m 585 272 l 585 158 q 594 106 585 125 q 618 76 603 86 q 654 62 633 65 q 699 58 675 58 l 717 58 l 717 0 l 298 0 l 298 58 l 338 58 q 382 62 361 58 q 418 76 403 65 q 443 106 433 86 q 452 158 452 125 l 452 272 l 24 272 l 24 329 l 453 991 l 585 991 l 585 350 l 757 350 l 757 272 l 585 272 m 452 607 q 452 674 452 637 q 454 749 453 711 q 457 824 455 787 q 461 895 458 862 q 448 869 456 885 q 428 833 439 853 q 404 792 416 814 q 379 750 391 770 q 355 711 366 729 q 336 681 345 693 l 123 350 l 452 350 l 452 607 z "},"5":{"ha":777,"x_min":77,"x_max":675,"o":"m 332 68 q 411 80 374 68 q 474 119 447 92 q 515 192 500 146 q 530 302 530 237 q 515 398 530 357 q 473 466 500 439 q 406 506 445 493 q 319 519 368 519 q 257 517 283 519 q 211 510 231 514 q 176 500 191 505 q 149 489 161 494 l 115 498 l 160 990 l 624 990 l 631 781 l 572 781 l 567 822 q 561 847 565 837 q 549 865 557 858 q 527 876 541 872 q 492 879 513 879 l 222 879 l 196 574 q 257 589 217 581 q 358 596 296 596 q 483 578 425 596 q 584 523 541 559 q 651 431 627 486 q 675 302 675 376 q 652 174 675 232 q 586 74 629 115 q 481 9 543 32 q 339 -14 418 -14 q 211 0 262 -14 q 131 33 161 13 q 89 78 101 54 q 77 126 77 103 q 98 186 77 165 q 164 208 119 208 q 175 153 164 178 q 206 108 185 127 q 258 79 227 90 q 332 68 290 68 z "},"6":{"ha":777,"x_min":85,"x_max":705,"o":"m 447 939 q 289 836 342 939 q 228 530 235 733 q 266 558 245 545 q 311 581 286 571 q 364 597 335 591 q 427 603 393 603 q 542 583 490 603 q 630 527 593 564 q 686 437 666 490 q 705 318 705 385 q 685 184 705 245 q 627 79 665 123 q 533 11 589 35 q 407 -14 478 -14 q 279 15 338 -14 q 177 106 220 44 q 109 266 134 168 q 85 500 85 363 q 95 629 85 566 q 124 748 104 692 q 174 852 144 804 q 244 933 203 899 q 335 987 284 968 q 447 1006 386 1006 q 548 994 505 1006 q 620 961 591 981 q 662 914 648 941 q 676 860 676 888 q 649 798 676 820 q 570 777 622 777 q 563 840 570 810 q 542 891 557 869 q 504 926 527 913 q 447 939 481 939 m 399 532 q 347 525 372 532 q 299 506 321 517 q 259 480 277 495 q 227 452 241 466 q 241 273 228 347 q 278 153 254 199 q 336 84 302 106 q 411 62 370 62 q 525 120 486 62 q 564 304 564 178 q 521 477 564 423 q 399 532 479 532 z "},"7":{"ha":777,"x_min":82,"x_max":710,"o":"m 264 0 l 591 879 l 227 879 q 146 808 152 879 l 140 739 l 82 739 l 89 990 l 710 990 l 710 950 l 368 0 l 264 0 z "},"8":{"ha":777,"x_min":64,"x_max":713,"o":"m 64 249 q 80 337 64 299 q 124 404 96 374 q 191 457 153 433 q 275 503 230 481 q 203 551 236 525 q 146 608 170 577 q 109 676 122 640 q 96 757 96 713 q 113 850 96 805 q 165 929 130 895 q 259 985 201 964 q 396 1006 316 1006 q 512 988 461 1006 q 598 938 563 970 q 651 862 633 906 q 669 766 669 819 q 656 686 669 721 q 618 624 642 652 q 559 575 593 597 q 482 532 524 553 q 576 479 534 507 q 649 419 618 452 q 696 349 680 387 q 713 265 713 311 q 689 148 713 199 q 622 60 665 96 q 517 5 578 24 q 379 -14 455 -14 q 242 7 301 -14 q 143 63 183 27 q 84 146 104 98 q 64 249 64 194 m 386 50 q 468 64 431 50 q 531 102 505 78 q 572 161 557 127 q 586 235 586 195 q 573 300 586 270 q 531 358 560 330 q 455 413 502 387 q 342 469 409 440 q 237 378 276 434 q 199 243 199 321 q 211 164 199 199 q 246 103 222 129 q 304 64 269 78 q 386 50 340 50 m 546 770 q 537 832 546 802 q 510 887 529 863 q 461 925 492 911 q 387 940 431 940 q 318 927 349 940 q 268 893 288 915 q 237 840 248 871 q 227 774 227 810 q 238 707 227 736 q 274 652 250 677 q 332 607 297 628 q 414 564 368 585 q 478 604 453 583 q 519 649 504 625 q 540 704 534 674 q 546 770 546 733 z "},"9":{"ha":777,"x_min":71,"x_max":692,"o":"m 317 61 q 487 164 432 61 q 549 476 542 267 q 514 441 534 458 q 468 411 494 424 q 412 390 443 397 q 345 382 381 382 q 234 399 284 382 q 147 452 183 417 q 91 541 111 488 q 71 664 71 593 q 91 802 71 739 q 150 910 111 865 q 243 980 188 955 q 368 1006 298 1006 q 498 979 439 1006 q 600 895 557 951 q 668 749 644 838 q 692 539 692 661 q 683 397 692 467 q 654 266 673 328 q 605 153 635 204 q 533 63 574 101 q 437 5 491 26 q 315 -16 382 -16 q 217 -5 256 -16 q 156 22 178 5 q 123 61 133 39 q 114 104 114 83 q 127 148 114 130 q 155 171 140 165 q 179 129 165 149 q 213 94 193 109 q 258 70 233 79 q 317 61 284 61 m 375 464 q 437 474 409 465 q 487 498 465 483 q 525 534 509 513 q 550 576 541 554 l 550 579 q 535 737 549 671 q 498 846 522 803 q 441 909 474 888 q 368 929 408 929 q 254 865 294 929 q 214 677 214 800 q 224 580 214 621 q 254 513 234 539 q 305 476 275 488 q 375 464 335 464 z "}," ":{"ha":361,"x_min":0,"x_max":0,"o":""},"!":{"ha":463,"x_min":143,"x_max":318,"o":"m 150 991 l 311 991 l 262 279 l 199 279 l 150 991 m 143 85 q 150 130 143 112 q 169 159 157 148 q 196 174 180 170 q 231 179 212 179 q 264 174 248 179 q 292 159 280 170 q 311 130 304 148 q 318 85 318 112 q 311 40 318 58 q 292 11 304 22 q 264 -5 280 0 q 231 -9 248 -9 q 196 -5 212 -9 q 169 11 180 0 q 150 40 157 22 q 143 85 143 58 z "},"\"":{"ha":567,"x_min":79,"x_max":488,"o":"m 340 991 l 488 991 l 446 665 l 382 665 l 340 991 m 79 991 l 227 991 l 184 665 l 121 665 l 79 991 z "},"#":{"ha":777,"x_min":56,"x_max":721,"o":"m 269 364 l 463 364 l 514 636 l 321 636 l 269 364 m 704 364 l 704 282 l 529 282 l 476 0 l 393 0 l 446 282 l 253 282 l 200 0 l 117 0 l 170 282 l 56 282 l 56 364 l 184 364 l 237 636 l 72 636 l 72 718 l 253 718 l 302 991 l 387 991 l 336 718 l 529 718 l 581 991 l 664 991 l 612 718 l 721 718 l 721 636 l 597 636 l 546 364 l 704 364 z "},"$":{"ha":777,"x_min":92,"x_max":679,"o":"m 421 950 q 527 936 484 949 q 599 903 571 924 q 639 854 627 882 q 652 794 652 827 q 622 727 652 749 q 542 704 592 704 q 537 765 542 734 q 518 822 532 796 q 481 865 505 847 q 421 886 458 882 l 421 562 q 532 508 484 535 q 612 449 580 481 q 662 379 645 418 q 679 292 679 341 q 612 129 679 187 q 421 58 545 71 l 421 -110 l 351 -110 l 351 56 q 281 59 317 56 q 213 69 246 62 q 148 87 179 76 q 92 113 117 98 l 92 326 l 150 326 q 164 251 150 288 q 206 186 179 215 q 270 139 233 157 q 351 117 307 120 l 351 460 q 241 517 286 489 q 168 577 196 546 q 128 646 140 609 q 115 728 115 682 q 132 812 115 774 q 179 879 149 850 q 253 924 210 907 q 351 947 297 941 l 351 1055 l 421 1055 l 421 950 m 551 271 q 545 320 551 298 q 522 361 538 342 q 482 397 507 380 q 421 429 457 413 l 421 121 q 517 171 484 132 q 551 271 551 211 m 240 739 q 247 688 240 710 q 269 649 254 666 q 303 618 283 632 q 351 593 324 605 l 351 884 q 303 864 324 878 q 268 832 282 851 q 247 790 254 814 q 240 739 240 766 z "},"%":{"ha":1244,"x_min":62,"x_max":1182,"o":"m 518 699 q 504 572 518 629 q 461 474 490 515 q 390 411 433 433 q 290 389 347 389 q 188 411 231 389 q 117 474 144 433 q 76 572 89 515 q 62 699 62 629 q 76 825 62 768 q 117 922 89 882 q 188 984 144 962 q 292 1006 231 1006 q 391 984 349 1006 q 461 922 433 962 q 504 825 490 882 q 518 699 518 768 m 187 699 q 193 592 187 639 q 210 512 198 545 q 242 463 222 479 q 290 446 262 446 q 338 463 319 446 q 370 512 358 479 q 387 592 382 545 q 392 699 392 639 q 387 804 392 758 q 370 882 382 850 q 339 931 358 914 q 292 947 320 947 q 243 931 263 947 q 211 882 223 914 q 193 804 198 850 q 187 699 187 758 m 1182 296 q 1168 169 1182 226 q 1125 71 1154 112 q 1054 8 1097 31 q 954 -14 1011 -14 q 851 8 895 -14 q 780 71 808 31 q 740 169 753 112 q 726 296 726 226 q 740 422 726 366 q 781 519 753 479 q 852 581 808 559 q 956 603 895 603 q 1055 581 1013 603 q 1125 519 1097 559 q 1168 422 1154 479 q 1182 296 1182 366 m 851 296 q 857 189 851 236 q 874 109 862 142 q 906 60 886 77 q 954 43 926 43 q 1002 60 983 43 q 1034 109 1022 77 q 1050 189 1045 142 q 1055 296 1055 236 q 1050 401 1055 355 q 1034 479 1045 447 q 1003 528 1022 511 q 956 545 984 545 q 907 528 927 545 q 874 479 887 511 q 857 401 862 447 q 851 296 851 355 m 418 0 l 326 0 l 822 991 l 913 991 l 418 0 z "},"&":{"ha":1031,"x_min":50,"x_max":1018,"o":"m 796 0 l 681 122 q 626 69 656 94 q 559 26 595 44 q 478 -3 522 7 q 380 -14 433 -14 q 235 7 297 -14 q 132 67 173 28 q 71 159 91 105 q 50 278 50 212 q 66 381 50 337 q 111 458 82 425 q 181 516 140 491 q 272 562 222 541 q 225 622 245 593 q 192 680 205 651 q 172 738 179 708 q 165 802 165 768 q 180 885 165 848 q 227 949 195 922 q 309 991 259 977 q 428 1006 359 1006 q 541 990 494 1006 q 617 947 588 975 q 660 884 647 920 q 673 808 673 848 q 661 729 673 764 q 620 665 648 694 q 547 610 591 636 q 439 557 503 584 l 692 289 q 707 352 701 320 q 717 415 713 385 q 722 476 721 446 q 724 530 724 505 l 724 585 l 974 585 l 974 526 l 961 526 q 916 524 938 526 q 874 511 893 521 q 839 483 854 501 q 815 432 824 464 q 787 335 803 387 q 747 231 771 283 l 876 93 q 897 76 886 83 q 923 65 908 69 q 957 60 937 61 q 1006 58 977 58 l 1018 58 l 1018 0 l 796 0 m 393 64 q 469 72 434 64 q 533 96 504 81 q 587 131 562 111 q 631 176 611 152 l 323 505 q 266 466 292 488 q 223 417 241 445 q 195 353 205 389 q 186 273 186 318 q 201 183 186 222 q 243 118 216 144 q 309 77 271 91 q 393 64 347 64 m 551 807 q 545 859 551 835 q 523 900 538 882 q 483 927 507 917 q 422 937 458 937 q 328 901 361 937 q 294 806 294 865 q 300 756 294 779 q 317 710 305 733 q 347 663 329 688 q 392 610 366 639 q 463 647 433 627 q 513 690 493 667 q 542 742 532 713 q 551 807 551 770 z "},"'":{"ha":306,"x_min":79,"x_max":227,"o":"m 79 991 l 227 991 l 184 665 l 121 665 l 79 991 z "},"(":{"ha":481,"x_min":79,"x_max":436,"o":"m 224 440 q 230 277 224 357 q 258 124 237 196 q 322 -9 280 52 q 436 -114 365 -71 l 436 -178 q 273 -85 340 -140 q 162 44 205 -31 q 99 217 119 119 q 79 440 79 315 q 99 663 79 566 q 162 835 119 760 q 273 963 205 909 q 436 1055 340 1017 l 436 993 q 322 889 365 949 q 258 756 280 828 q 230 604 237 684 q 224 440 224 523 z "},")":{"ha":481,"x_min":45,"x_max":401,"o":"m 257 440 q 251 604 257 523 q 222 756 244 684 q 158 889 200 828 q 45 993 116 949 l 45 1055 q 208 963 140 1017 q 319 835 276 909 q 381 663 361 760 q 401 440 401 566 q 381 217 401 315 q 319 44 361 119 q 208 -85 276 -31 q 45 -178 140 -140 l 45 -114 q 158 -9 116 -71 q 222 124 200 52 q 251 277 244 196 q 257 440 257 357 z "},"*":{"ha":694,"x_min":57,"x_max":629,"o":"m 57 860 l 106 970 l 319 835 l 283 1055 l 404 1055 l 366 836 l 581 966 l 629 859 l 395 790 l 629 722 l 581 615 l 366 745 l 404 525 l 283 525 l 318 745 l 106 612 l 57 721 l 290 790 l 57 860 z "},"+":{"ha":777,"x_min":90,"x_max":686,"o":"m 429 456 l 429 199 l 346 199 l 346 456 l 90 456 l 90 538 l 346 538 l 346 794 l 429 794 l 429 538 l 686 538 l 686 456 l 429 456 z "},",":{"ha":347,"x_min":41,"x_max":269,"o":"m 269 58 q 257 -27 269 14 q 217 -104 245 -68 q 147 -167 190 -139 q 41 -214 104 -195 l 41 -155 q 142 -102 110 -134 q 174 -31 174 -71 q 166 -8 174 -17 q 147 8 159 1 q 123 22 136 16 q 98 39 110 29 q 79 62 87 48 q 72 97 72 76 q 98 158 72 137 q 163 179 124 179 q 203 171 184 179 q 237 148 222 163 q 261 110 252 133 q 269 58 269 87 z "},"-":{"ha":431,"x_min":35,"x_max":396,"o":"m 35 326 l 35 431 l 396 431 l 396 326 l 35 326 z "},".":{"ha":397,"x_min":111,"x_max":286,"o":"m 111 85 q 118 130 111 112 q 137 159 125 148 q 164 174 149 170 q 199 179 180 179 q 232 174 216 179 q 260 159 248 170 q 279 130 272 148 q 286 85 286 112 q 279 40 286 58 q 260 11 272 22 q 232 -5 248 0 q 199 -9 216 -9 q 164 -5 180 -9 q 137 11 149 0 q 118 40 125 22 q 111 85 111 58 z "},"/":{"ha":400,"x_min":0,"x_max":400,"o":"m 82 -168 l 0 -168 l 319 1055 l 400 1055 l 82 -168 z "},":":{"ha":399,"x_min":113,"x_max":288,"o":"m 113 85 q 119 130 113 112 q 138 159 126 148 q 166 174 150 170 q 200 179 182 179 q 234 174 218 179 q 261 159 250 170 q 280 130 273 148 q 288 85 288 112 q 280 40 288 58 q 261 11 273 22 q 234 -5 250 0 q 200 -9 218 -9 q 166 -5 182 -9 q 138 11 150 0 q 119 40 126 22 q 113 85 113 58 m 113 657 q 119 702 113 684 q 138 731 126 720 q 166 747 150 742 q 200 751 182 751 q 234 747 218 751 q 261 731 250 742 q 280 702 273 720 q 288 657 288 684 q 280 612 288 631 q 261 583 273 594 q 234 567 250 572 q 200 562 218 562 q 166 567 182 562 q 138 583 150 572 q 119 612 126 594 q 113 657 113 631 z "},";":{"ha":347,"x_min":41,"x_max":269,"o":"m 269 58 q 257 -27 269 14 q 217 -104 245 -68 q 147 -167 190 -139 q 41 -214 104 -195 l 41 -155 q 142 -102 110 -134 q 174 -31 174 -71 q 166 -8 174 -17 q 147 8 159 1 q 123 22 136 16 q 98 39 110 29 q 79 62 87 48 q 72 97 72 76 q 98 158 72 137 q 163 179 124 179 q 203 171 184 179 q 237 148 222 163 q 261 110 252 133 q 269 58 269 87 m 87 657 q 94 702 87 684 q 113 731 101 720 q 141 747 125 742 q 175 751 157 751 q 209 747 193 751 q 236 731 224 742 q 255 702 248 720 q 262 657 262 684 q 255 612 262 631 q 236 583 248 594 q 209 567 224 572 q 175 562 193 562 q 141 567 157 562 q 113 583 125 572 q 94 612 101 594 q 87 657 87 631 z "},"<":{"ha":777,"x_min":90,"x_max":686,"o":"m 90 472 l 90 521 l 686 842 l 686 749 l 220 496 l 686 245 l 686 153 l 90 472 z "},"=":{"ha":777,"x_min":90,"x_max":686,"o":"m 686 400 l 686 318 l 90 318 l 90 400 l 686 400 m 686 673 l 686 591 l 90 591 l 90 673 l 686 673 z "},">":{"ha":777,"x_min":90,"x_max":686,"o":"m 90 153 l 90 245 l 557 496 l 90 749 l 90 842 l 686 521 l 686 472 l 90 153 z "},"?":{"ha":694,"x_min":60,"x_max":624,"o":"m 354 279 l 269 279 l 269 490 q 371 547 330 515 q 436 617 412 579 q 472 695 461 654 q 482 778 482 736 q 473 843 482 814 q 446 893 465 873 q 399 926 428 914 q 330 937 370 937 q 257 923 287 937 q 210 884 228 909 q 183 828 191 860 q 175 760 175 795 q 129 765 150 760 q 93 782 108 771 q 68 810 77 793 q 60 850 60 827 q 75 911 60 883 q 122 961 90 940 q 203 994 155 982 q 319 1006 252 1006 q 441 989 385 1006 q 537 940 496 972 q 601 861 578 907 q 624 754 624 814 q 606 650 624 697 q 553 565 588 604 q 469 494 519 526 q 354 436 418 463 l 354 279 m 222 85 q 229 130 222 112 q 248 159 236 148 q 276 174 260 170 q 310 179 292 179 q 343 174 328 179 q 371 159 359 170 q 390 130 383 148 q 397 85 397 112 q 390 40 397 58 q 371 11 383 22 q 343 -5 359 0 q 310 -9 328 -9 q 276 -5 292 -9 q 248 11 260 0 q 229 40 236 22 q 222 85 222 58 z "},"@":{"ha":1279,"x_min":90,"x_max":1206,"o":"m 1206 545 q 1181 363 1206 444 q 1118 225 1157 282 q 1030 138 1078 168 q 933 107 981 107 q 830 140 871 107 q 770 233 789 174 l 762 233 q 730 183 748 206 q 689 143 712 160 q 638 117 667 126 q 575 107 610 107 q 495 121 533 107 q 428 165 456 136 q 381 239 399 194 q 364 345 364 283 q 373 425 364 382 q 399 512 381 469 q 445 595 417 555 q 513 666 473 635 q 603 716 552 697 q 718 734 654 734 q 795 722 763 734 q 848 693 827 710 l 904 722 l 937 722 l 867 368 q 862 336 865 352 q 859 306 860 322 q 857 275 857 290 q 864 233 857 251 q 883 203 871 215 q 910 186 895 191 q 942 180 925 180 q 1004 205 972 180 q 1062 276 1036 229 q 1104 392 1088 323 q 1121 549 1121 460 q 1092 709 1121 640 q 1011 826 1063 779 q 887 897 959 873 q 728 921 814 921 q 594 902 660 921 q 471 846 529 883 q 362 756 412 809 q 277 634 313 703 q 220 484 241 566 q 200 306 200 401 q 233 108 200 190 q 323 -25 267 26 q 455 -101 380 -77 q 614 -125 530 -125 q 722 -115 671 -125 q 817 -89 772 -105 q 899 -52 861 -73 q 966 -9 937 -31 l 999 -60 q 922 -110 964 -85 q 829 -154 879 -135 q 722 -185 779 -174 q 600 -197 665 -197 q 395 -166 488 -197 q 234 -73 301 -136 q 128 83 166 -11 q 90 302 90 176 q 112 490 90 401 q 173 656 133 579 q 271 794 214 732 q 400 900 328 857 q 556 968 472 944 q 736 991 641 991 q 941 957 852 991 q 1088 862 1029 922 q 1176 721 1147 802 q 1206 545 1206 639 m 493 325 q 523 216 493 252 q 599 180 552 180 q 660 196 634 180 q 703 235 686 211 q 732 291 721 260 q 749 354 743 322 l 802 636 q 771 667 793 656 q 724 677 749 677 q 649 660 682 677 q 590 612 615 642 q 546 546 564 583 q 516 469 528 508 q 498 392 504 429 q 493 325 493 355 z "},"ក":{"ha":1153,"x_min":170,"x_max":1101,"o":"m 205 0 q 170 41 170 0 q 177 88 170 60 l 225 262 q 382 600 281 463 q 629 746 489 746 q 876 645 786 746 q 995 390 966 544 q 1009 252 1009 317 q 991 118 1009 180 q 858 0 958 0 q 739 135 781 0 l 715 208 l 776 155 q 859 102 837 102 q 892 142 880 102 q 906 255 906 194 q 895 373 906 311 q 805 572 870 499 q 629 644 740 644 l 628 644 q 467 544 541 644 q 326 243 376 418 l 277 66 q 205 0 258 0 m 323 829 q 254 916 254 880 q 424 1018 254 1018 l 1000 1018 q 1101 967 1101 1018 q 1000 916 1101 916 l 424 916 q 359 875 359 916 q 359 864 359 869 l 376 785 l 323 829 z "},"ខ":{"ha":1017,"x_min":203,"x_max":879,"o":"m 359 593 q 338 589 347 589 q 286 635 303 589 q 273 730 273 682 q 282 813 273 771 q 407 962 302 906 q 652 1017 513 1017 q 838 952 779 1017 q 879 831 879 907 q 869 751 879 795 q 623 448 844 624 q 305 153 305 197 q 336 116 305 131 q 408 102 367 102 q 614 232 489 102 q 829 531 718 345 q 696 170 787 270 q 404 0 534 0 q 287 25 337 0 q 203 159 203 67 q 555 526 203 248 q 770 766 751 681 q 774 802 774 785 q 748 874 774 844 q 636 916 710 916 q 467 878 542 916 q 378 777 392 840 q 372 726 372 750 q 383 669 372 694 q 392 633 392 648 q 359 593 392 604 z "},"គ":{"ha":1153,"x_min":185,"x_max":1109,"o":"m 237 0 q 185 60 185 0 q 197 132 185 89 l 233 262 q 390 600 289 463 q 637 746 496 746 q 884 645 793 746 q 1002 390 973 544 q 1017 252 1017 317 q 999 118 1017 180 q 871 0 966 0 q 804 51 804 0 q 871 102 804 102 q 899 142 888 102 q 913 255 913 194 q 902 373 913 311 q 812 572 878 499 q 637 644 747 644 l 635 644 q 475 544 548 644 q 334 243 383 418 l 309 155 q 457 293 389 247 q 582 339 526 339 q 697 305 659 339 q 736 203 736 271 q 686 136 736 136 q 635 203 635 136 q 582 237 634 237 q 498 198 549 237 q 379 79 448 158 q 237 0 311 0 m 330 829 q 261 916 261 880 q 431 1018 262 1018 l 1008 1018 q 1109 967 1109 1018 q 1007 916 1109 916 l 431 916 q 366 875 366 916 q 367 864 366 869 l 383 785 l 330 829 z "},"ឃ":{"ha":1729,"x_min":147,"x_max":1800,"o":"m 873 271 l 892 237 q 1056 102 970 102 q 1240 212 1153 102 q 1373 543 1326 322 l 1429 805 q 1501 949 1447 885 q 1651 1017 1560 1017 q 1758 982 1716 1017 q 1800 897 1800 947 q 1780 814 1800 846 l 1780 821 q 1742 892 1780 870 q 1660 916 1701 916 q 1575 880 1606 916 q 1531 785 1544 844 l 1475 524 q 1307 131 1419 262 q 1055 0 1194 0 q 812 163 928 0 q 786 131 799 146 q 538 0 673 0 q 306 98 370 0 q 275 243 275 145 q 311 514 275 349 l 336 636 l 378 838 q 381 867 381 854 q 375 897 381 885 q 336 916 365 916 q 287 888 307 916 q 255 804 267 860 q 251 772 251 785 q 268 746 251 746 l 269 746 q 303 696 303 746 q 269 644 303 645 q 165 688 193 644 q 147 759 147 715 q 155 822 147 787 q 221 968 176 920 q 336 1017 267 1017 q 454 966 409 1017 q 486 873 486 930 q 480 821 486 849 l 412 500 q 379 256 379 344 q 395 170 379 197 q 540 102 434 102 q 719 212 632 102 q 852 543 806 322 l 873 636 q 730 734 774 682 q 696 819 696 774 q 699 845 696 832 q 766 974 717 931 q 892 1017 816 1017 q 1061 955 961 1017 q 1113 890 1113 922 q 1107 868 1113 879 q 1072 846 1095 846 q 1014 866 1048 846 q 892 916 932 916 q 833 895 859 916 q 800 832 809 873 q 799 818 799 825 q 836 739 799 782 q 975 627 879 688 l 954 524 q 873 271 922 376 z "},"ង":{"ha":1085,"x_min":147,"x_max":1036,"o":"m 821 854 q 931 897 924 865 q 933 914 933 907 q 926 937 933 928 q 888 949 916 949 q 840 922 859 949 q 821 861 821 895 q 821 854 821 859 m 744 747 q 678 746 713 746 q 385 838 464 746 q 336 980 336 900 q 343 1044 336 1010 q 514 1259 387 1204 q 665 1296 599 1296 q 728 1286 699 1296 q 536 1194 608 1260 q 443 1024 465 1128 q 440 998 440 1010 q 473 910 440 952 q 679 848 527 848 l 720 848 q 719 863 719 857 q 762 1000 719 949 q 888 1051 804 1051 q 1002 1003 956 1051 q 1036 913 1036 966 q 1031 873 1036 894 q 946 778 1018 810 q 851 755 913 763 q 867 713 858 736 q 896 566 896 636 q 886 488 896 526 l 823 190 q 749 47 802 95 q 631 0 695 0 q 451 136 581 0 q 373 170 414 170 q 294 102 332 170 q 186 0 236 0 q 147 39 147 0 q 150 62 147 50 l 163 125 l 242 499 q 244 519 244 510 q 170 576 244 576 q 258 678 203 678 q 338 627 313 678 q 353 556 353 598 q 344 481 353 523 l 294 248 q 374 271 317 271 q 510 208 444 271 l 635 102 q 682 127 654 102 q 722 205 710 154 l 787 509 q 791 549 791 528 q 765 682 791 605 q 744 747 753 718 z "},"ច":{"ha":1118,"x_min":181,"x_max":1063,"o":"m 374 679 l 314 391 q 302 294 302 337 q 336 174 302 220 q 524 102 389 102 q 743 164 661 102 q 851 351 825 227 l 882 498 q 885 526 885 513 q 879 556 885 545 q 840 575 869 575 q 798 564 811 575 q 775 519 784 553 q 773 500 773 508 q 792 475 773 475 l 793 475 q 827 425 827 475 q 793 373 827 374 q 689 417 718 373 q 670 490 670 447 q 675 537 670 512 q 732 645 693 613 q 840 677 770 677 q 958 625 913 677 q 990 533 990 590 q 984 480 990 509 l 953 335 q 810 84 917 168 q 524 0 702 0 q 248 102 326 0 q 197 277 197 168 q 212 408 197 336 l 284 746 q 286 762 286 754 q 264 804 286 789 q 181 916 181 860 q 385 1018 182 1018 l 962 1018 q 1063 967 1063 1018 q 961 916 1063 916 l 385 916 q 290 880 290 916 q 294 864 290 873 q 375 683 375 717 q 374 679 375 681 z "},"ឆ":{"ha":1254,"x_min":102,"x_max":1187,"o":"m 220 220 q 203 170 203 203 q 237 102 203 102 q 285 170 271 102 l 300 237 l 272 237 q 220 220 237 237 m 975 351 l 1006 498 q 1009 526 1009 513 q 1003 556 1009 545 q 964 575 993 575 q 922 564 935 575 q 899 519 908 553 q 897 500 897 508 q 916 475 897 475 l 917 475 q 951 425 951 475 q 917 373 951 374 q 813 417 842 373 q 794 490 794 447 q 799 537 794 512 q 856 645 817 613 q 964 677 895 677 q 1082 625 1037 677 q 1114 533 1114 590 q 1108 480 1114 509 l 1077 335 q 985 94 1035 151 q 817 0 902 0 q 636 117 729 0 q 537 212 580 186 q 422 237 494 237 l 404 237 l 388 155 q 333 39 370 77 q 237 0 295 0 q 136 42 170 0 q 102 170 102 85 q 144 297 102 254 q 272 339 186 339 l 321 339 l 408 746 q 410 762 410 754 q 388 804 410 789 q 305 916 305 860 q 509 1018 306 1018 l 1086 1018 q 1187 967 1187 1018 q 1085 916 1187 916 l 509 916 q 414 880 414 916 q 418 864 414 873 q 499 683 499 717 q 498 679 499 681 l 425 339 q 585 303 517 339 q 715 184 654 267 q 817 102 775 102 q 902 156 861 102 q 975 351 944 211 z "},"ជ":{"ha":1118,"x_min":146,"x_max":1068,"o":"m 345 248 q 424 271 368 271 q 560 208 494 271 l 686 102 q 732 127 704 102 q 772 205 760 154 l 830 475 q 838 542 838 512 q 833 583 838 564 q 788 682 823 625 q 906 612 856 666 q 939 519 939 576 q 930 454 939 490 l 873 190 q 799 47 852 95 q 682 0 745 0 q 501 136 631 0 q 423 170 465 170 q 345 102 382 170 q 237 0 286 0 q 197 39 197 0 q 200 62 197 50 l 214 125 l 324 636 q 180 734 224 682 q 146 819 146 774 q 149 845 146 832 q 217 974 168 931 q 440 1017 267 1017 l 451 1017 q 699 998 616 1017 q 821 983 763 983 q 863 985 842 983 q 960 1082 939 991 q 964 1126 964 1105 q 923 1240 964 1189 q 739 1357 868 1308 q 1010 1283 930 1356 q 1068 1139 1068 1230 q 1059 1063 1068 1104 q 896 892 1026 909 q 786 885 836 885 q 679 896 726 885 q 460 916 595 916 l 451 916 q 284 895 309 916 q 251 832 260 873 q 250 818 250 825 q 286 739 250 782 q 426 627 330 688 l 345 248 z "},"ឈ":{"ha":2256,"x_min":147,"x_max":2327,"o":"m 290 274 l 260 180 q 253 142 253 157 q 256 122 253 130 q 286 102 264 102 q 349 144 310 102 q 397 226 389 186 q 398 239 398 233 q 393 259 398 250 q 361 279 385 272 q 340 281 352 281 q 290 274 319 281 m 1400 271 l 1419 237 q 1583 102 1497 102 q 1767 212 1680 102 q 1900 543 1853 322 l 1956 805 q 2028 949 1973 885 q 2178 1017 2087 1017 q 2285 982 2243 1017 q 2327 897 2327 947 q 2306 814 2327 846 l 2306 821 q 2268 892 2306 870 q 2187 916 2228 916 q 2102 880 2133 916 q 2058 785 2070 844 l 2002 524 q 1834 131 1946 262 q 1581 0 1721 0 q 1339 163 1455 0 q 1313 131 1326 146 q 1065 0 1200 0 q 869 102 932 0 q 809 382 809 197 l 809 406 l 813 678 l 813 694 q 777 856 813 801 q 660 916 739 916 q 509 851 572 916 q 408 659 446 787 l 320 376 q 355 378 338 378 q 413 370 388 378 q 480 316 450 359 q 501 246 501 286 q 497 208 501 228 q 419 69 483 138 q 286 0 355 0 q 166 54 201 0 q 147 125 147 83 q 161 203 147 160 l 311 688 q 447 935 360 853 q 660 1017 534 1017 q 855 932 791 1017 q 915 698 915 853 l 915 677 l 909 408 l 909 384 q 945 178 909 249 q 1067 102 985 102 q 1246 212 1159 102 q 1379 543 1333 322 l 1400 636 q 1257 734 1301 682 q 1223 819 1223 774 q 1225 845 1223 832 q 1293 974 1244 931 q 1419 1017 1343 1017 q 1588 955 1488 1017 q 1640 890 1640 922 q 1634 868 1640 879 q 1598 846 1622 846 q 1541 866 1575 846 q 1419 916 1459 916 q 1360 895 1385 916 q 1327 832 1336 873 q 1326 818 1326 825 q 1362 739 1326 782 q 1502 627 1406 688 l 1481 524 q 1400 271 1449 376 z "},"ញ":{"ha":1865,"x_min":98,"x_max":1769,"o":"m 332 277 l 320 277 q 268 273 297 277 l 248 180 q 243 143 243 158 q 247 121 243 130 q 275 102 253 102 q 338 144 298 102 q 385 226 377 186 q 387 235 387 231 q 374 260 387 249 q 332 277 359 275 m 1102 717 q 1097 758 1101 733 q 1067 833 1092 791 q 1015 896 1042 876 q 963 916 988 916 q 812 696 916 916 q 665 475 709 475 q 633 541 633 475 q 637 597 633 564 q 645 656 645 627 q 569 852 645 751 q 481 916 520 916 q 414 857 445 897 q 370 749 384 816 l 292 378 q 335 382 315 382 q 395 373 368 382 q 469 316 439 359 q 490 246 490 286 q 486 208 490 228 q 408 69 471 138 q 275 0 343 0 q 159 51 190 0 q 140 129 140 81 q 149 203 140 161 l 269 763 q 336 924 288 860 q 462 1018 385 987 l 480 1018 q 646 927 567 1018 q 725 764 701 857 q 841 959 787 900 q 968 1017 895 1017 q 1070 981 1021 1017 q 1154 887 1119 945 q 1170 859 1163 873 q 1276 965 1219 935 q 1480 1017 1377 1017 q 1716 925 1637 1017 q 1769 762 1769 864 q 1756 650 1769 711 l 1615 -15 q 1418 -397 1550 -319 q 1143 -475 1286 -475 q 943 -445 1040 -475 q 785 -356 838 -416 q 663 -267 731 -296 q 509 -237 593 -237 q 349 -269 425 -237 q 210 -363 275 -300 q 153 -401 178 -394 q 141 -402 147 -402 q 111 -389 124 -402 q 98 -357 98 -374 q 99 -346 98 -352 q 136 -293 105 -322 q 311 -175 217 -214 q 511 -136 405 -136 q 703 -173 617 -136 q 857 -284 790 -210 q 984 -351 897 -328 q 1145 -373 1065 -373 q 1352 -320 1246 -373 q 1515 5 1457 -268 l 1655 660 q 1664 739 1664 703 q 1629 852 1664 810 q 1481 916 1575 916 q 1192 801 1333 916 q 1197 781 1196 791 q 1204 706 1204 732 q 1195 634 1204 680 l 1065 118 q 932 0 1032 0 q 834 68 855 0 q 831 88 831 77 q 951 363 831 165 q 888 153 888 204 q 890 138 888 144 q 932 102 904 102 q 966 142 954 102 l 1095 652 q 1103 706 1103 688 l 1103 715 q 1101 713 1101 713 q 1102 717 1101 715 z "},"ដ":{"ha":1154,"x_min":155,"x_max":1082,"o":"m 899 747 q 975 640 958 689 q 989 559 989 599 q 984 514 989 536 l 912 190 q 838 47 892 95 q 721 0 785 0 q 560 85 698 0 q 381 170 422 170 q 302 102 340 170 q 195 0 244 0 q 155 39 155 0 q 158 62 155 50 l 172 125 l 279 623 q 300 665 285 650 q 342 678 317 678 q 378 661 369 678 q 384 637 384 652 q 380 611 384 626 l 302 248 q 382 271 326 271 q 600 178 452 271 l 725 102 q 772 127 743 102 q 811 205 800 154 l 884 540 q 894 626 894 583 q 876 739 894 683 q 685 712 796 712 q 406 781 485 712 q 347 918 347 833 q 353 977 347 946 q 551 1119 384 1119 q 808 872 707 1119 q 551 1017 676 1017 q 453 958 467 1017 q 451 936 451 947 q 499 852 451 884 q 705 814 557 814 q 901 856 842 814 q 979 970 960 898 q 981 995 981 982 q 954 1105 981 1043 q 802 1266 895 1198 q 1046 1126 963 1248 q 1082 993 1082 1061 q 1078 951 1082 972 q 957 780 1051 848 q 899 747 930 761 z "},"ឋ":{"ha":1152,"x_min":147,"x_max":1132,"o":"m 873 865 q 813 916 854 916 q 751 896 762 916 q 743 873 743 884 q 746 862 743 867 q 808 848 754 848 q 873 865 839 848 m 959 931 q 1019 1019 1002 975 q 1034 1086 1034 1056 q 1029 1120 1034 1104 q 970 1185 1016 1162 q 810 1217 924 1208 q 974 1248 907 1248 q 1008 1245 992 1248 q 1115 1152 1082 1234 q 1132 1069 1132 1112 q 1115 983 1132 1027 q 991 821 1082 897 q 989 820 990 821 q 989 791 989 806 q 954 524 989 692 q 786 131 898 262 q 538 0 673 0 q 306 98 370 0 q 275 243 275 145 q 311 514 275 349 l 378 838 q 381 867 381 854 q 375 897 381 885 q 336 916 365 916 q 287 888 307 916 q 255 804 267 860 q 251 772 251 785 q 268 746 251 746 l 269 746 q 303 696 303 746 q 269 644 303 645 q 165 688 193 644 q 147 759 147 715 q 155 822 147 787 q 221 968 176 920 q 336 1017 267 1017 q 454 966 409 1017 q 486 873 486 930 q 480 821 486 849 l 412 500 q 379 256 379 344 q 395 170 379 197 q 540 102 434 102 q 719 212 632 102 q 852 543 806 322 q 886 761 882 680 q 796 747 842 747 q 656 814 692 747 q 640 875 640 844 q 664 949 640 912 q 826 1017 707 1017 q 959 931 916 1017 z "},"ឌ":{"ha":1083,"x_min":203,"x_max":949,"o":"m 359 593 q 338 589 347 589 q 286 635 303 589 q 273 730 273 682 q 282 812 273 770 q 350 962 302 906 q 473 1017 397 1017 q 611 883 549 1017 q 814 1017 707 1017 q 949 860 949 1017 q 937 751 949 813 q 657 448 912 624 q 305 153 305 197 q 336 116 305 131 q 408 102 367 102 q 655 239 489 102 q 792 391 781 342 q 855 441 804 441 q 896 403 896 441 q 892 378 896 392 l 845 157 q 738 -26 822 46 q 475 -134 654 -99 q 668 11 610 -65 q 743 170 727 86 q 404 0 534 0 q 287 25 337 0 q 203 159 203 67 q 589 526 203 248 q 838 766 819 681 q 851 855 851 821 q 812 916 851 916 q 583 707 737 916 q 467 916 508 916 l 466 916 q 395 815 426 916 q 376 711 376 753 q 383 669 376 686 q 392 633 392 648 q 359 593 392 604 z "},"ឍ":{"ha":1900,"x_min":149,"x_max":1980,"o":"m 276 273 l 256 180 q 252 143 252 158 q 255 121 252 130 q 283 102 261 102 q 346 144 307 102 q 393 226 385 186 q 395 235 395 231 q 382 260 395 249 q 340 277 368 275 l 328 277 q 276 273 305 277 m 931 220 q 914 170 914 203 q 948 102 914 102 q 996 170 981 102 l 1010 237 l 983 237 q 931 220 948 237 m 283 0 q 167 51 198 0 q 149 129 149 81 q 157 203 149 161 l 277 763 q 345 924 296 860 q 416 996 382 974 q 488 1017 450 1017 q 654 927 582 1017 q 733 764 709 857 q 849 959 795 900 q 976 1017 903 1017 q 1078 981 1029 1017 q 1162 887 1127 945 q 1205 781 1197 829 q 1213 706 1213 732 q 1176 526 1213 680 l 1136 339 q 1249 303 1180 339 q 1378 184 1317 267 q 1467 102 1438 102 q 1538 156 1497 102 q 1611 351 1580 211 l 1666 602 q 1672 656 1672 630 q 1657 736 1672 698 q 1573 850 1634 798 q 1462 905 1521 895 q 1403 965 1403 916 l 1403 966 q 1471 1017 1403 1017 l 1734 1017 q 1980 1051 1923 1017 q 1775 916 1911 916 l 1653 916 q 1758 766 1731 850 q 1774 666 1774 719 q 1765 583 1774 626 l 1713 335 q 1621 94 1671 151 q 1467 0 1538 0 q 1299 117 1392 0 q 1200 212 1243 186 q 1133 237 1158 237 l 1114 237 l 1099 155 q 1044 39 1081 77 q 948 0 1006 0 q 846 42 880 0 q 812 170 812 85 q 855 297 812 254 q 983 339 897 339 l 1031 339 l 1076 543 q 1111 706 1111 688 q 1105 758 1111 723 q 1075 833 1100 791 q 1023 896 1050 876 q 971 916 996 916 q 821 696 924 916 q 673 475 718 475 q 642 541 642 475 q 646 597 642 564 q 653 656 653 627 q 577 852 653 751 q 489 916 528 916 q 422 857 466 916 q 378 749 392 816 l 300 378 q 343 382 323 382 q 403 373 376 382 q 477 316 447 359 q 498 246 498 286 q 494 208 498 228 q 416 69 479 138 q 283 0 351 0 z "},"ណ":{"ha":2144,"x_min":151,"x_max":2092,"o":"m 294 274 l 264 180 q 257 142 257 157 q 260 122 257 130 q 290 102 269 102 q 353 144 314 102 q 401 226 393 186 q 402 239 402 233 q 397 259 402 250 q 365 279 389 272 q 344 281 356 281 q 294 274 323 281 m 290 0 q 170 54 205 0 q 151 125 151 83 q 165 203 151 160 l 315 688 q 451 935 364 853 q 664 1017 538 1017 q 859 932 795 1017 q 919 698 919 853 l 919 677 q 884 248 913 408 q 963 271 907 271 q 1099 208 1033 271 l 1225 102 q 1272 127 1243 102 q 1311 205 1299 154 l 1420 713 q 1548 941 1452 865 q 1804 1017 1644 1017 q 2041 925 1961 1017 q 2092 760 2092 865 q 2078 634 2092 703 l 1948 118 q 1815 0 1915 0 q 1717 68 1738 0 q 1714 88 1714 77 q 1834 363 1714 165 q 1771 153 1771 204 q 1773 138 1771 144 q 1815 102 1787 102 q 1849 142 1837 102 l 1978 652 q 1988 737 1988 699 q 1953 852 1988 810 q 1805 916 1899 916 q 1614 861 1686 916 q 1519 694 1543 805 l 1412 190 q 1338 47 1392 95 q 1221 0 1284 0 q 1040 136 1171 0 q 962 170 1004 170 q 884 102 921 170 q 776 0 825 0 q 736 39 736 0 q 739 62 736 50 l 786 262 q 817 678 817 420 l 817 694 q 781 856 817 801 q 664 916 743 916 q 513 851 576 916 q 412 659 450 787 l 324 376 q 359 378 342 378 q 417 370 392 378 q 484 316 454 359 q 505 246 505 286 q 501 208 505 228 q 423 69 487 138 q 290 0 359 0 z "},"ត":{"ha":1153,"x_min":193,"x_max":1101,"o":"m 322 829 q 253 916 253 880 q 423 1018 254 1018 l 1000 1018 q 1101 967 1101 1018 q 999 916 1101 916 l 423 916 q 358 875 358 916 q 359 864 358 869 l 375 785 l 322 829 m 336 274 l 306 180 q 299 142 299 157 q 302 122 299 130 q 332 102 311 102 q 395 144 356 102 q 443 226 435 186 q 444 239 444 233 q 439 259 444 250 q 407 279 431 272 q 386 281 398 281 q 336 274 366 281 m 366 376 q 401 378 385 378 q 459 370 434 378 q 526 316 496 359 q 547 246 547 286 q 543 208 547 228 q 465 69 529 138 q 332 0 401 0 q 212 54 248 0 q 193 125 193 83 q 207 203 193 160 l 262 397 q 382 613 294 505 q 629 746 488 746 q 876 645 785 746 q 994 390 965 544 q 1008 252 1008 317 q 991 118 1008 180 q 863 0 958 0 q 795 51 795 0 q 863 102 795 102 q 891 142 880 102 q 905 255 905 194 q 894 373 905 311 q 804 572 869 499 q 629 644 739 644 l 627 644 q 467 557 540 644 q 366 376 389 460 z "},"ថ":{"ha":1118,"x_min":146,"x_max":1068,"o":"m 261 665 q 180 734 224 682 q 146 819 146 774 q 149 845 146 832 q 217 974 168 931 q 440 1017 267 1017 l 451 1017 q 699 998 616 1017 q 821 983 763 983 q 863 985 842 983 q 960 1082 939 991 q 964 1126 964 1105 q 923 1240 964 1189 q 739 1357 868 1308 q 1010 1283 930 1356 q 1068 1139 1068 1230 q 1059 1063 1068 1104 q 896 892 1026 909 q 786 885 836 885 q 679 896 726 885 q 460 916 595 916 l 451 916 q 284 895 309 916 q 251 832 260 873 q 250 818 250 825 q 286 739 250 782 q 369 679 330 688 l 309 391 q 297 294 297 337 q 330 174 297 220 q 518 102 383 102 q 737 164 656 102 q 846 351 819 227 l 877 498 q 880 526 880 513 q 873 556 880 545 q 835 575 863 575 q 792 564 806 575 q 770 519 779 553 q 768 500 768 508 q 787 475 768 475 l 787 475 q 822 425 822 475 q 787 373 822 374 q 684 417 712 373 q 665 490 665 447 q 669 537 665 512 q 726 645 688 613 q 835 677 765 677 q 953 625 907 677 q 985 533 985 590 q 979 480 985 509 l 947 335 q 804 84 911 168 q 518 0 696 0 q 243 102 321 0 q 192 277 192 168 q 207 408 192 336 l 261 665 z "},"ទ":{"ha":1019,"x_min":177,"x_max":951,"o":"m 755 488 q 811 522 804 488 q 812 534 812 528 q 786 556 812 556 q 740 493 753 556 l 739 488 l 755 488 m 716 387 l 677 210 q 597 53 654 105 q 460 0 540 0 q 305 142 345 0 l 257 310 q 252 345 252 330 q 286 393 252 383 q 300 395 294 395 q 357 331 338 395 l 404 168 q 462 102 422 102 q 531 133 499 102 q 576 229 563 165 l 615 394 q 527 408 568 399 q 323 514 430 430 q 191 686 217 599 q 177 771 177 730 q 180 813 177 793 q 298 962 200 906 q 557 1017 397 1017 q 720 998 623 1017 q 951 822 862 966 q 699 904 789 892 q 562 916 608 916 q 355 878 420 916 q 277 797 290 840 l 277 789 q 287 716 277 753 q 388 593 303 662 q 556 507 473 526 q 636 494 593 498 l 641 515 q 692 622 656 586 q 787 658 729 658 q 897 620 866 658 q 918 553 918 595 q 912 505 918 531 q 859 416 900 446 q 749 387 818 387 q 716 387 732 387 z "},"ធ":{"ha":1154,"x_min":168,"x_max":1095,"o":"m 915 498 q 918 526 918 513 q 911 556 918 545 q 873 575 901 575 q 830 564 844 575 q 808 519 817 553 q 806 500 806 508 q 825 475 806 475 l 825 475 q 860 425 860 475 q 825 373 860 374 q 722 417 750 373 q 703 490 703 447 q 707 537 703 512 q 764 645 726 613 q 873 677 803 677 q 991 625 945 677 q 1023 533 1023 590 q 1017 480 1023 509 l 951 183 q 880 46 933 92 q 740 0 826 0 q 579 85 717 0 q 393 170 441 170 q 315 102 352 170 q 207 0 256 0 q 168 39 168 0 q 170 62 168 50 l 184 125 l 317 746 q 318 762 318 754 q 296 804 318 789 q 214 916 214 860 q 418 1018 214 1018 l 994 1018 q 1095 967 1095 1018 q 994 916 1095 916 l 418 916 q 323 880 323 916 q 326 864 323 873 q 408 683 408 717 q 407 679 408 681 l 315 248 q 394 271 338 271 q 618 178 471 271 l 744 102 q 814 126 787 102 q 851 199 842 151 l 915 498 z "},"ន":{"ha":1085,"x_min":168,"x_max":974,"o":"m 926 157 q 753 0 890 0 q 549 142 696 0 q 407 244 448 244 q 328 176 366 244 q 207 0 256 0 q 168 39 168 0 q 170 62 168 50 l 184 125 l 277 559 q 328 611 289 611 q 341 610 334 611 q 382 562 382 602 q 380 543 382 553 l 333 327 q 408 346 351 346 q 620 207 477 346 q 755 102 724 102 q 823 178 808 102 q 825 191 825 184 q 604 469 825 279 l 460 589 q 319 796 319 708 q 321 820 319 808 q 437 962 339 906 q 663 1017 536 1017 q 819 979 748 1017 q 948 865 890 941 q 974 804 974 830 q 956 770 974 784 q 928 759 943 759 q 871 798 901 759 q 775 886 827 857 q 667 916 724 916 q 494 878 559 916 q 422 801 429 840 q 421 796 421 799 q 538 658 421 756 l 661 553 q 928 185 928 328 q 926 157 928 171 z "},"ប":{"ha":1255,"x_min":144,"x_max":1298,"o":"m 321 636 q 178 734 222 682 q 144 819 144 774 q 147 845 144 832 q 215 974 165 931 q 341 1017 264 1017 q 510 955 410 1017 q 562 890 562 922 q 556 868 562 879 q 520 846 545 846 q 463 866 497 846 q 340 916 381 916 q 282 895 307 916 q 249 832 258 873 q 248 818 248 825 q 283 739 248 782 q 424 627 328 688 l 370 373 q 358 269 358 315 q 380 170 358 208 q 525 102 419 102 q 738 212 651 102 q 871 543 825 322 l 927 805 q 1000 949 945 885 q 1149 1017 1059 1017 q 1256 982 1214 1017 q 1298 897 1298 947 q 1278 814 1298 846 l 1278 821 q 1240 892 1278 870 q 1158 916 1199 916 q 1073 880 1104 916 q 1029 785 1042 844 l 973 524 q 805 131 917 262 q 524 0 692 0 q 291 98 355 0 q 253 252 253 157 q 269 392 253 315 l 321 636 z "},"ផ":{"ha":1120,"x_min":134,"x_max":1072,"o":"m 265 665 q 184 734 229 682 q 151 819 151 774 q 153 845 151 832 q 221 974 172 931 q 444 1017 271 1017 l 455 1017 q 703 998 620 1017 q 825 983 767 983 q 867 985 846 983 q 964 1082 943 991 q 968 1126 968 1105 q 927 1240 968 1189 q 743 1357 872 1308 q 1015 1283 935 1356 q 1072 1139 1072 1230 q 1063 1063 1072 1104 q 900 892 1030 909 q 790 885 840 885 q 683 896 730 885 q 464 916 599 916 l 455 916 q 288 895 313 916 q 255 832 264 873 q 254 818 254 825 q 290 739 254 782 q 373 679 334 688 l 281 248 q 360 271 304 271 q 585 178 437 271 l 710 102 q 781 126 753 102 q 817 199 808 151 l 881 498 q 884 526 884 513 q 878 556 884 545 q 839 575 867 575 q 796 564 810 575 q 774 519 783 553 q 772 500 772 508 q 791 475 772 475 l 791 475 q 826 425 826 475 q 791 373 826 374 q 688 417 716 373 q 669 490 669 447 q 673 537 669 512 q 730 645 692 613 q 839 677 769 677 q 957 625 911 677 q 989 533 989 590 q 983 480 989 509 l 918 183 q 846 46 899 92 q 706 0 792 0 q 545 85 683 0 q 359 170 408 170 q 281 102 318 170 q 173 0 222 0 q 134 39 134 0 q 136 62 134 50 l 150 125 l 265 665 z "},"ព":{"ha":1289,"x_min":149,"x_max":1213,"o":"m 276 273 l 256 180 q 252 143 252 158 q 255 121 252 130 q 283 102 261 102 q 346 144 307 102 q 393 226 385 186 q 395 235 395 231 q 382 260 395 249 q 340 277 368 275 l 328 277 q 276 273 305 277 m 283 0 q 167 51 198 0 q 149 129 149 81 q 157 203 149 161 l 277 763 q 345 924 296 860 q 470 1018 393 987 l 488 1018 q 654 927 575 1018 q 733 764 709 857 q 849 959 795 900 q 976 1017 903 1017 q 1078 981 1029 1017 q 1162 887 1127 945 q 1205 781 1197 829 q 1213 706 1213 732 q 1203 634 1213 680 l 1074 118 q 940 0 1040 0 q 842 68 863 0 q 840 88 840 77 q 960 363 840 165 q 897 153 897 204 q 899 138 897 144 q 941 102 912 102 q 974 142 962 102 l 1103 652 q 1111 706 1111 688 q 1105 758 1111 723 q 1075 833 1100 791 q 1023 896 1050 876 q 971 916 996 916 q 821 696 924 916 q 673 475 718 475 q 642 541 642 475 q 646 597 642 564 q 653 656 653 627 q 577 852 653 751 q 489 916 528 916 q 422 857 453 897 q 378 749 392 816 l 300 378 q 343 382 323 382 q 403 373 376 382 q 477 316 447 359 q 498 246 498 286 q 494 208 498 228 q 416 69 479 138 q 283 0 351 0 z "},"ភ":{"ha":1190,"x_min":68,"x_max":1092,"o":"m 313 829 q 244 916 244 880 q 414 1018 245 1018 l 991 1018 q 1092 967 1092 1018 q 990 916 1092 916 l 414 916 q 349 875 349 916 q 350 864 349 869 l 366 785 l 313 829 m 326 282 q 448 593 374 463 q 667 746 541 746 q 894 645 804 746 q 1013 390 983 544 q 1027 252 1027 317 q 1009 118 1027 180 q 876 0 976 0 q 757 135 799 0 l 732 208 l 793 155 q 876 102 854 102 q 909 142 898 102 q 924 255 924 194 q 912 373 924 311 q 823 572 888 499 q 667 644 758 644 l 667 644 q 532 537 592 644 q 422 247 468 418 q 337 38 375 76 q 238 0 298 0 q 119 35 170 0 q 68 169 68 71 q 104 347 68 288 q 215 407 142 407 q 271 356 271 407 q 216 305 271 305 q 181 271 193 305 q 170 170 170 238 q 191 113 170 123 q 238 102 212 102 q 326 282 277 102 z "},"ម":{"ha":1255,"x_min":144,"x_max":1298,"o":"m 955 448 q 805 131 900 242 q 524 0 692 0 q 291 98 355 0 q 253 252 253 157 q 269 392 253 315 l 321 636 q 178 734 222 682 q 144 819 144 774 q 147 845 144 832 q 215 974 165 931 q 341 1017 264 1017 q 510 955 410 1017 q 562 890 562 922 q 556 868 562 879 q 520 846 545 846 q 463 866 497 846 q 340 916 381 916 q 282 895 307 916 q 249 832 258 873 q 248 818 248 825 q 283 739 248 782 q 424 627 328 688 l 370 373 q 358 269 358 315 q 380 170 358 208 q 525 102 419 102 q 738 212 651 102 q 846 441 804 295 l 552 441 q 485 492 485 441 q 552 543 485 543 l 871 543 l 927 805 q 1000 949 945 885 q 1149 1017 1059 1017 q 1256 982 1214 1017 q 1298 897 1298 947 q 1278 814 1298 846 l 1278 821 q 1240 892 1278 870 q 1158 916 1199 916 q 1073 880 1104 916 q 1029 785 1042 844 l 977 545 q 1162 591 1099 551 q 955 448 1109 473 z "},"យ":{"ha":1607,"x_min":168,"x_max":1693,"o":"m 766 271 l 785 237 q 949 102 863 102 q 1133 212 1046 102 q 1266 543 1219 322 l 1322 805 q 1394 949 1339 885 q 1544 1017 1453 1017 q 1651 982 1609 1017 q 1693 897 1693 947 q 1672 814 1693 846 l 1672 821 q 1634 892 1672 870 q 1553 916 1594 916 q 1468 880 1499 916 q 1424 785 1436 844 l 1368 524 q 1200 131 1312 262 q 947 0 1087 0 q 705 163 821 0 q 679 131 692 146 q 431 0 566 0 q 199 98 262 0 q 168 243 168 145 q 203 514 168 349 l 271 838 q 353 998 293 965 q 425 1017 387 1017 q 481 1007 452 1017 q 574 922 547 983 q 591 823 591 881 q 587 762 591 795 q 532 640 574 672 q 476 622 509 622 q 420 633 451 622 q 398 665 398 641 q 404 693 398 677 q 441 731 418 731 q 454 728 448 731 q 460 727 458 727 q 486 779 479 727 q 490 824 490 804 q 484 868 490 850 q 447 911 475 901 q 427 915 436 915 q 404 906 414 915 q 373 821 388 892 l 305 500 q 272 256 272 344 q 288 170 272 197 q 433 102 327 102 q 612 212 525 102 q 745 543 699 322 l 801 805 q 873 949 819 885 q 1003 1017 932 1017 q 1062 979 1040 1017 q 1074 934 1074 958 q 1066 892 1074 914 q 1005 916 1046 916 q 947 880 978 916 q 903 785 916 844 l 847 524 q 766 271 815 376 z "},"រ":{"ha":811,"x_min":136,"x_max":779,"o":"m 490 247 q 405 38 443 76 q 306 0 366 0 q 187 35 238 0 q 136 169 136 71 q 172 347 136 288 q 283 407 210 407 q 339 356 339 407 q 284 305 339 305 q 249 271 261 305 q 237 170 237 238 q 259 113 237 123 q 306 102 280 102 q 393 282 345 102 l 465 602 q 471 656 471 630 q 456 736 471 698 q 372 850 433 798 q 261 905 320 895 q 202 965 202 916 l 202 966 q 270 1017 202 1017 l 779 1017 q 507 916 676 916 l 452 916 q 557 766 530 850 q 573 666 573 719 q 564 583 573 626 l 490 247 z "},"ល":{"ha":1666,"x_min":147,"x_max":1640,"o":"m 290 274 l 260 180 q 253 142 253 157 q 256 122 253 130 q 286 102 264 102 q 349 144 310 102 q 397 226 389 186 q 398 239 398 233 q 393 259 398 250 q 361 279 385 272 q 340 281 352 281 q 290 274 319 281 m 286 0 q 166 54 201 0 q 147 125 147 83 q 161 203 147 160 l 311 688 q 447 935 360 853 q 660 1017 534 1017 q 855 932 791 1017 q 915 698 915 853 l 915 677 l 909 408 l 909 384 q 945 178 909 249 q 1067 102 985 102 q 1246 212 1159 102 q 1379 543 1333 322 l 1400 636 q 1257 734 1301 682 q 1223 819 1223 774 q 1225 845 1223 832 q 1293 974 1244 931 q 1419 1017 1343 1017 q 1588 955 1488 1017 q 1640 890 1640 922 q 1634 868 1640 879 q 1598 846 1622 846 q 1541 866 1575 846 q 1419 916 1459 916 q 1360 895 1385 916 q 1327 832 1336 873 q 1326 818 1326 825 q 1362 739 1326 782 q 1502 627 1406 688 l 1481 524 q 1313 131 1425 262 q 1065 0 1200 0 q 869 102 932 0 q 809 382 809 197 l 809 406 l 813 678 l 813 694 q 777 856 813 801 q 660 916 739 916 q 509 851 572 916 q 408 659 446 787 l 320 376 q 355 378 338 378 q 413 370 388 378 q 480 316 450 359 q 501 246 501 286 q 497 208 501 228 q 419 69 483 138 q 286 0 355 0 z "},"វ":{"ha":811,"x_min":136,"x_max":731,"o":"m 473 865 q 412 916 454 916 q 350 896 361 916 q 342 873 342 884 q 345 862 342 867 q 408 848 353 848 q 473 865 438 848 m 558 931 q 618 1019 602 975 q 633 1086 633 1056 q 628 1120 633 1104 q 569 1185 615 1162 q 409 1217 523 1208 q 573 1248 507 1248 q 608 1245 591 1248 q 714 1152 681 1234 q 731 1069 731 1112 q 714 983 731 1027 q 590 821 681 897 q 588 820 589 821 q 589 791 589 806 q 553 524 589 692 l 490 247 q 405 38 443 76 q 306 0 366 0 q 187 35 238 0 q 136 169 136 71 q 172 347 136 288 q 283 407 210 407 q 339 356 339 407 q 284 305 339 305 q 249 271 261 305 q 237 170 237 238 q 259 113 237 123 q 306 102 280 102 q 393 282 345 102 l 452 543 q 486 761 481 680 q 395 747 441 747 q 256 814 291 747 q 239 875 239 844 q 263 949 239 912 q 425 1017 307 1017 q 558 931 515 1017 z "},"ឝ":{"ha":1153,"x_min":185,"x_max":1177,"o":"m 330 829 q 261 916 261 880 q 431 1018 262 1018 l 1008 1018 q 1109 967 1109 1018 q 1007 916 1109 916 l 431 916 q 366 875 366 916 q 367 864 366 869 l 383 785 l 330 829 m 907 342 q 902 373 905 357 q 812 572 878 499 q 637 644 747 644 l 635 644 q 475 544 548 644 q 334 243 383 418 l 309 155 q 457 293 389 247 q 763 340 526 339 q 907 342 842 340 m 1017 268 l 1017 253 q 999 118 1017 180 q 871 0 966 0 q 804 51 804 0 q 871 102 804 102 q 899 142 888 102 q 913 247 913 191 q 763 238 846 238 q 498 198 549 237 q 379 79 448 158 q 237 0 311 0 q 185 60 185 0 q 197 132 185 89 l 233 262 q 390 600 289 463 q 637 746 496 746 q 884 645 793 746 q 1002 390 973 544 q 1009 349 1006 369 q 1177 387 1135 361 q 1017 268 1139 304 z "},"ឞ":{"ha":1255,"x_min":144,"x_max":1298,"o":"m 955 448 q 805 131 900 242 q 524 0 692 0 q 291 98 355 0 q 253 252 253 157 q 269 392 253 315 l 321 636 q 178 734 222 682 q 144 819 144 774 q 147 845 144 832 q 215 974 165 931 q 341 1017 264 1017 q 510 955 410 1017 q 562 890 562 922 q 556 868 562 879 q 520 846 545 846 q 463 866 497 846 q 340 916 381 916 q 282 895 307 916 q 249 832 258 873 q 248 818 248 825 q 283 739 248 782 q 424 627 328 688 l 370 373 q 358 269 358 315 q 380 170 358 208 q 525 102 419 102 q 738 212 651 102 q 846 441 804 295 l 755 441 q 688 492 688 441 q 755 543 688 543 l 871 543 l 927 805 q 1000 949 945 885 q 1149 1017 1059 1017 q 1256 982 1214 1017 q 1298 897 1298 947 q 1278 814 1298 846 l 1278 821 q 1240 892 1278 870 q 1158 916 1199 916 q 1073 880 1104 916 q 1029 785 1042 844 l 977 545 q 1162 591 1099 551 q 955 448 1109 473 z "},"ស":{"ha":1692,"x_min":151,"x_max":1763,"o":"m 294 274 l 264 180 q 257 142 257 157 q 260 122 257 130 q 290 102 269 102 q 353 144 314 102 q 401 226 393 186 q 402 239 402 233 q 397 259 402 250 q 365 279 389 272 q 344 281 356 281 q 294 274 323 281 m 452 711 q 293 760 347 725 q 211 916 211 812 q 381 1018 212 1018 l 774 1018 q 876 967 876 1018 q 774 916 876 916 l 381 916 q 313 869 313 916 l 313 863 q 490 728 316 787 q 587 746 536 746 q 779 645 703 746 q 884 390 855 544 l 920 243 q 1086 102 960 102 q 1236 212 1183 102 q 1336 543 1289 322 l 1392 805 q 1464 949 1409 885 q 1614 1017 1523 1017 q 1721 982 1678 1017 q 1763 897 1763 947 q 1742 814 1763 846 l 1742 821 q 1704 892 1742 870 q 1623 916 1664 916 q 1537 880 1569 916 q 1494 785 1506 844 l 1438 524 q 1303 131 1381 262 q 1085 0 1225 0 q 823 224 876 0 l 784 373 q 708 572 760 499 q 587 644 656 644 l 585 644 q 425 557 498 644 q 324 376 347 460 q 359 378 342 378 q 417 370 392 378 q 484 316 454 359 q 505 246 505 286 q 501 208 505 228 q 423 69 487 138 q 290 0 359 0 q 170 54 205 0 q 151 125 151 83 q 165 203 151 160 l 220 397 q 340 613 252 505 q 452 711 392 678 z "},"ហ":{"ha":1661,"x_min":144,"x_max":1577,"o":"m 1271 916 q 1092 849 1145 916 q 1014 684 1039 782 l 973 524 q 805 131 917 262 q 524 0 692 0 q 291 98 355 0 q 253 252 253 157 q 269 392 253 315 l 321 636 q 178 734 222 682 q 144 819 144 774 q 147 845 144 832 q 215 974 165 931 q 341 1017 264 1017 q 510 955 410 1017 q 562 890 562 922 q 556 868 562 879 q 520 846 545 846 q 463 866 497 846 q 340 916 381 916 q 282 895 307 916 q 249 832 258 873 q 248 818 248 825 q 283 739 248 782 q 424 627 328 688 l 370 373 q 358 269 358 315 q 380 170 358 208 q 525 102 419 102 q 738 212 651 102 q 871 543 825 322 l 911 704 q 1021 920 942 823 q 1272 1017 1099 1017 q 1525 925 1446 1017 q 1577 760 1577 865 q 1562 634 1577 704 l 1432 118 q 1299 0 1399 0 q 1201 68 1222 0 q 1198 88 1198 77 q 1318 363 1198 165 q 1255 153 1255 204 q 1257 138 1255 144 q 1299 102 1271 102 q 1333 142 1321 102 l 1462 652 q 1472 739 1472 700 q 1438 852 1472 810 q 1271 916 1383 916 z "},"ឡ":{"ha":1546,"x_min":177,"x_max":1611,"o":"m 1240 805 q 1312 949 1257 885 q 1462 1017 1371 1017 q 1569 982 1527 1017 q 1611 897 1611 947 q 1590 814 1611 846 l 1590 821 q 1552 892 1590 870 q 1471 916 1512 916 q 1385 880 1417 916 q 1342 785 1354 844 l 1092 -387 q 1018 -529 1072 -481 q 901 -576 964 -576 q 740 -492 878 -576 q 561 -407 602 -407 q 482 -475 519 -407 q 374 -576 424 -576 q 335 -537 335 -576 q 338 -514 335 -527 l 351 -452 l 408 -184 l 408 -182 q 385 -170 408 -170 q 326 -119 326 -170 q 387 -68 326 -68 q 494 -102 465 -68 q 513 -163 513 -125 q 509 -203 513 -181 l 482 -328 q 562 -305 505 -305 q 779 -398 631 -305 l 905 -475 q 951 -449 923 -475 q 991 -371 979 -422 l 1240 805 m 755 488 q 811 522 804 488 q 812 534 812 528 q 786 556 812 556 q 740 493 753 556 l 739 488 l 755 488 m 716 387 l 677 210 q 597 53 654 105 q 460 0 540 0 q 305 142 345 0 l 257 310 q 252 345 252 330 q 286 393 252 383 q 300 395 294 395 q 357 331 338 395 l 404 168 q 462 102 422 102 q 531 133 499 102 q 576 229 563 165 l 615 394 q 527 408 568 399 q 323 514 430 430 q 191 686 217 599 q 177 771 177 730 q 180 813 177 793 q 298 962 200 906 q 557 1017 397 1017 q 720 998 623 1017 q 951 822 862 966 q 699 904 789 892 q 562 916 608 916 q 355 878 420 916 q 277 797 290 840 l 277 789 q 287 716 277 753 q 388 593 303 662 q 556 507 473 526 q 636 494 593 498 l 641 515 q 692 622 656 586 q 787 658 729 658 q 897 620 866 658 q 918 553 918 595 q 912 505 918 531 q 859 416 900 446 q 749 387 818 387 q 716 387 732 387 z "},"អ":{"ha":1392,"x_min":135,"x_max":1445,"o":"m 469 636 q 326 734 370 682 q 292 819 292 774 q 294 845 292 832 q 362 974 313 931 q 488 1017 412 1017 q 657 955 557 1017 q 709 890 709 922 q 703 868 709 879 q 667 846 692 846 q 610 866 644 846 q 488 916 528 916 q 429 895 454 916 q 396 832 405 873 q 395 818 395 825 q 431 739 395 782 q 571 627 475 688 l 489 247 q 404 38 442 76 q 305 0 366 0 q 186 35 237 0 q 135 169 135 71 q 172 347 135 288 q 282 407 209 407 q 338 356 338 407 q 283 305 338 305 q 248 271 260 305 q 237 170 237 238 q 258 113 237 123 q 305 102 279 102 q 393 282 344 102 l 469 636 m 1025 577 l 1074 805 q 1147 949 1092 885 q 1297 1017 1206 1017 q 1403 982 1361 1017 q 1445 897 1445 947 q 1425 814 1445 846 l 1425 821 q 1387 892 1425 870 q 1305 916 1346 916 q 1220 880 1251 916 q 1177 785 1189 844 l 1131 581 q 1288 625 1232 589 q 1112 488 1240 519 l 1058 247 q 973 38 1011 76 q 874 0 935 0 q 755 35 806 0 q 704 169 704 71 q 741 347 704 288 q 851 407 778 407 q 907 356 907 407 q 852 305 907 305 q 817 271 829 305 q 806 170 806 238 q 827 113 806 123 q 874 102 848 102 q 962 282 913 102 l 1003 475 l 677 475 q 610 526 610 475 q 677 577 610 577 l 1025 577 z "},"ឣ":{"ha":1401,"x_min":135,"x_max":1445,"o":"m 469 636 q 326 734 370 682 q 292 819 292 774 q 294 845 292 832 q 362 974 313 931 q 488 1017 412 1017 q 657 955 557 1017 q 709 890 709 922 q 703 868 709 879 q 667 846 692 846 q 610 866 644 846 q 488 916 528 916 q 429 895 454 916 q 396 832 405 873 q 395 818 395 825 q 431 739 395 782 q 571 627 475 688 l 489 247 q 404 38 442 76 q 305 0 366 0 q 186 35 237 0 q 135 169 135 71 q 172 347 135 288 q 282 407 209 407 q 338 356 338 407 q 283 305 338 305 q 248 271 260 305 q 237 170 237 238 q 258 113 237 123 q 305 102 279 102 q 393 282 344 102 l 469 636 m 1025 577 l 1074 805 q 1147 949 1092 885 q 1297 1017 1206 1017 q 1403 982 1361 1017 q 1445 897 1445 947 q 1425 814 1445 846 l 1425 821 q 1387 892 1425 870 q 1305 916 1346 916 q 1220 880 1251 916 q 1177 785 1189 844 l 1131 581 q 1288 625 1232 589 q 1112 488 1240 519 l 1058 247 q 973 38 1011 76 q 874 0 935 0 q 755 35 806 0 q 704 169 704 71 q 741 347 704 288 q 851 407 778 407 q 907 356 907 407 q 852 305 907 305 q 817 271 829 305 q 806 170 806 238 q 827 113 806 123 q 874 102 848 102 q 962 282 913 102 l 1003 475 l 677 475 q 610 526 610 475 q 677 577 610 577 l 1025 577 z "},"ឤ":{"ha":1786,"x_min":135,"x_max":1717,"o":"m 469 636 q 326 734 370 682 q 292 819 292 774 q 294 845 292 832 q 362 974 313 931 q 488 1017 412 1017 q 657 955 557 1017 q 709 890 709 922 q 703 868 709 879 q 667 846 692 846 q 610 866 644 846 q 488 916 528 916 q 429 895 454 916 q 396 832 405 873 q 395 818 395 825 q 431 739 395 782 q 571 627 475 688 l 489 247 q 404 38 442 76 q 305 0 366 0 q 186 35 237 0 q 135 169 135 71 q 172 347 135 288 q 282 407 209 407 q 338 356 338 407 q 283 305 338 305 q 248 271 260 305 q 237 170 237 238 q 258 113 237 123 q 305 102 279 102 q 393 282 344 102 l 469 636 m 1131 581 q 1288 625 1232 589 q 1112 488 1240 519 l 1058 247 q 973 38 1011 76 q 874 0 935 0 q 755 35 806 0 q 704 169 704 71 q 741 347 704 288 q 851 407 778 407 q 907 356 907 407 q 852 305 907 305 q 817 271 829 305 q 806 170 806 238 q 827 113 806 123 q 874 102 848 102 q 962 282 913 102 l 1003 475 l 677 475 q 610 526 610 475 q 677 577 610 577 l 1025 577 l 1052 704 q 1161 920 1079 825 q 1413 1017 1240 1017 q 1666 925 1586 1017 q 1717 760 1717 865 q 1702 634 1717 704 l 1573 118 q 1439 0 1539 0 q 1341 68 1362 0 q 1339 88 1339 77 q 1459 363 1339 165 q 1396 153 1396 204 q 1398 138 1396 144 q 1440 102 1411 102 q 1473 142 1461 102 l 1603 652 q 1613 739 1613 700 q 1578 852 1613 810 q 1411 916 1524 916 q 1232 849 1285 916 q 1154 684 1176 781 l 1131 581 z "},"ឥ":{"ha":1153,"x_min":193,"x_max":1118,"o":"m 336 274 l 306 180 q 299 142 299 157 q 302 122 299 130 q 332 102 311 102 q 395 144 356 102 q 443 226 435 186 q 444 239 444 233 q 439 259 444 250 q 407 279 431 272 q 386 281 398 281 q 336 274 366 281 m 366 376 q 401 378 385 378 q 459 370 434 378 q 526 316 496 359 q 547 246 547 286 q 543 208 547 228 q 465 69 529 138 q 332 0 401 0 q 212 54 248 0 q 193 125 193 83 q 207 203 193 160 l 262 397 q 382 613 294 505 q 629 746 488 746 q 876 645 785 746 q 994 390 965 544 q 1008 252 1008 317 q 991 118 1008 180 q 863 0 958 0 q 795 51 795 0 q 863 102 795 102 q 891 142 880 102 q 905 255 905 194 q 894 373 905 311 q 804 572 869 499 q 629 644 739 644 l 627 644 q 467 557 540 644 q 366 376 389 460 m 419 679 q 231 734 275 682 q 197 819 197 774 q 199 845 197 832 q 267 974 218 931 q 490 1017 317 1017 l 501 1017 q 749 998 666 1017 q 871 983 813 983 q 913 985 892 983 q 1010 1082 989 991 q 1015 1126 1015 1105 q 973 1240 1015 1189 q 789 1357 918 1308 q 1061 1283 981 1356 q 1118 1139 1118 1230 q 1109 1063 1118 1104 q 946 892 1076 909 q 836 885 886 885 q 729 896 776 885 q 510 916 645 916 l 501 916 q 334 895 359 916 q 301 832 310 873 q 300 818 300 825 q 336 739 300 782 q 419 679 380 688 z "},"ឦ":{"ha":1637,"x_min":18,"x_max":1717,"o":"m 136 -373 l 125 -427 q 122 -448 122 -439 q 145 -475 122 -475 q 220 -458 195 -475 q 245 -408 245 -441 q 221 -382 245 -391 q 150 -373 197 -373 l 136 -373 m 330 274 l 300 180 q 293 142 293 157 q 296 122 293 130 q 326 102 304 102 q 389 144 350 102 q 437 226 429 186 q 438 239 438 233 q 433 259 438 250 q 401 279 425 272 q 380 281 392 281 q 330 274 359 281 m 985 118 q 857 0 951 0 q 789 51 789 0 q 857 102 789 102 q 885 142 873 102 q 953 574 953 431 q 947 644 953 615 q 858 843 923 770 q 682 916 793 916 l 681 916 q 520 828 593 916 q 360 376 442 732 q 395 378 378 378 q 453 370 428 378 q 520 316 490 359 q 541 246 541 286 q 537 208 541 228 q 459 69 523 138 q 326 0 395 0 q 206 54 241 0 q 187 125 187 83 q 201 203 187 160 l 256 397 q 435 884 348 776 q 682 1017 542 1017 q 929 916 839 1017 q 1048 661 1019 815 q 1055 572 1055 624 q 985 118 1055 412 m 1459 865 q 1398 916 1440 916 q 1336 896 1348 916 q 1329 873 1329 884 q 1331 862 1329 867 q 1394 848 1339 848 q 1459 865 1424 848 m 1544 931 q 1605 1019 1588 975 q 1619 1086 1619 1056 q 1614 1120 1619 1104 q 1555 1185 1601 1162 q 1395 1217 1509 1208 q 1559 1248 1493 1248 q 1594 1245 1577 1248 q 1700 1152 1667 1234 q 1717 1069 1717 1112 q 1700 983 1717 1027 q 1576 821 1667 897 q 1574 820 1575 821 q 1575 791 1575 806 q 1539 524 1575 692 l 1341 -387 q 1267 -529 1320 -481 q 1126 -576 1213 -576 l 737 -576 q 664 -551 685 -576 q 650 -507 650 -534 q 654 -475 650 -492 l 660 -446 q 667 -382 667 -411 q 663 -345 667 -362 q 603 -266 654 -307 q 496 -202 552 -225 q 382 -168 439 -179 q 328 -162 355 -162 q 273 -168 300 -162 q 191 -220 221 -180 q 159 -271 160 -260 q 301 -305 254 -271 q 349 -408 349 -339 q 298 -534 349 -492 q 144 -576 247 -576 q 32 -528 63 -576 q 18 -466 18 -503 q 24 -408 18 -439 l 54 -273 q 113 -153 64 -216 q 241 -70 161 -89 q 329 -59 286 -59 q 394 -66 362 -59 q 536 -109 466 -80 q 675 -194 606 -136 q 762 -317 746 -251 q 770 -384 770 -348 q 760 -467 770 -422 l 759 -475 l 1126 -475 q 1200 -449 1172 -475 q 1240 -371 1228 -422 l 1438 543 q 1472 761 1467 680 q 1381 747 1428 747 q 1242 814 1277 747 q 1225 875 1225 844 q 1249 949 1225 912 q 1411 1017 1293 1017 q 1544 931 1501 1017 z "},"ឧ":{"ha":1017,"x_min":203,"x_max":896,"o":"m 359 593 q 338 589 347 589 q 286 635 303 589 q 273 730 273 682 q 282 813 273 771 q 407 962 302 906 q 652 1017 513 1017 q 838 952 779 1017 q 879 831 879 907 q 869 751 879 795 q 623 448 844 624 q 305 153 305 197 q 336 116 305 131 q 408 102 367 102 q 655 239 489 102 q 792 391 781 342 q 855 441 804 441 q 896 403 896 441 q 892 378 896 392 l 845 157 q 738 -26 822 46 q 475 -134 654 -99 q 668 11 610 -65 q 743 170 727 86 q 404 0 534 0 q 287 25 337 0 q 203 159 203 67 q 555 526 203 248 q 770 766 751 681 q 774 802 774 785 q 748 874 774 844 q 636 916 710 916 q 467 878 542 916 q 378 777 392 840 q 372 726 372 750 q 383 669 372 694 q 392 633 392 648 q 359 593 392 604 z "},"ឨ":{"ha":1017,"x_min":102,"x_max":1088,"o":"m 363 629 q 407 645 388 645 q 445 621 431 645 q 454 592 454 606 q 422 546 454 566 q 316 511 365 511 q 266 522 290 511 q 183 635 199 552 q 176 712 176 673 q 187 813 176 761 q 305 962 207 906 q 564 1017 404 1017 q 727 998 629 1017 q 924 883 869 966 q 960 755 960 829 q 950 669 960 715 q 646 431 929 561 q 314 246 362 300 q 262 161 265 191 l 262 157 q 292 116 262 130 q 347 102 323 102 q 440 133 397 102 l 753 374 q 807 395 778 395 q 841 389 823 395 q 874 323 874 376 q 867 263 874 298 l 832 103 q 733 -117 798 -56 q 664 -155 693 -155 q 631 -140 646 -155 q 616 -108 616 -125 q 650 -50 616 -81 q 734 127 708 2 l 760 253 l 514 63 q 343 0 432 0 q 222 36 293 0 q 159 142 159 69 q 159 159 159 150 q 230 312 168 244 q 566 506 292 380 q 853 688 839 632 q 859 737 859 713 q 833 825 859 788 q 704 901 795 878 q 568 916 615 916 q 361 878 427 916 q 283 777 297 840 q 275 711 275 741 q 280 669 275 688 q 307 616 290 624 q 319 613 312 613 q 363 629 336 613 m 229 968 q 221 967 226 967 q 153 997 197 967 q 102 1111 102 1032 q 176 1256 102 1190 q 342 1322 250 1322 q 533 1216 421 1322 q 618 1152 600 1152 q 709 1203 635 1152 q 848 1254 783 1254 q 1004 1175 921 1254 l 1046 1135 q 1088 1055 1088 1095 q 1050 1005 1088 1014 q 1035 1003 1042 1003 q 1000 1025 1010 1003 q 932 1102 985 1052 q 844 1152 879 1152 q 779 1127 817 1152 q 614 1050 669 1050 q 469 1135 559 1050 q 345 1220 379 1220 q 249 1182 293 1220 q 205 1115 205 1144 q 241 1061 205 1086 q 269 1019 269 1042 q 266 1005 269 1013 q 229 968 255 974 z "},"ឩ":{"ha":1092,"x_min":165,"x_max":1091,"o":"m 370 629 q 414 645 395 645 q 452 621 437 645 q 460 592 460 606 q 429 546 460 566 q 323 511 372 511 q 273 522 296 511 q 190 635 205 552 q 182 712 182 673 q 194 813 182 761 q 312 962 214 906 q 571 1017 411 1017 q 734 998 636 1017 q 931 883 876 966 q 967 755 967 829 q 957 669 967 715 q 652 431 936 561 q 321 246 369 300 q 269 161 272 191 l 269 157 q 298 116 269 130 q 353 102 330 102 q 447 133 404 102 l 760 374 q 814 395 785 395 q 848 389 830 395 q 881 323 881 376 q 873 263 881 298 l 839 103 q 740 -117 804 -56 q 671 -155 700 -155 q 638 -140 652 -155 q 623 -108 623 -125 q 657 -50 623 -81 q 741 127 715 2 l 767 253 l 521 63 q 350 0 439 0 q 229 36 300 0 q 165 142 165 69 q 166 159 165 150 q 237 312 174 244 q 572 506 299 380 q 860 688 846 632 q 865 737 865 713 q 840 825 865 788 q 711 901 802 878 q 575 916 622 916 q 368 878 433 916 q 290 777 304 840 q 282 711 282 741 q 287 669 282 688 q 314 616 297 624 q 326 613 319 613 q 370 629 342 613 m 994 330 q 1040 392 1006 392 q 1058 389 1048 392 q 1091 323 1091 376 q 1084 263 1091 298 l 1049 103 q 950 -117 1015 -56 q 881 -155 910 -155 q 848 -140 863 -155 q 833 -108 833 -125 q 867 -50 833 -81 q 951 127 925 2 l 977 253 l 994 330 z "},"ឪ":{"ha":1080,"x_min":203,"x_max":1028,"o":"m 448 981 q 652 1017 538 1017 q 838 952 779 1017 q 879 831 879 907 q 869 751 879 795 q 623 448 844 624 q 305 153 305 197 q 336 116 305 131 q 408 102 367 102 q 655 239 489 102 q 792 391 781 342 q 855 441 804 441 q 896 403 896 441 q 892 378 896 392 l 845 157 q 738 -26 822 46 q 475 -134 654 -99 q 668 11 610 -65 q 743 170 727 86 q 404 0 534 0 q 287 25 337 0 q 203 159 203 67 q 555 526 203 248 q 770 766 751 681 q 774 802 774 785 q 748 874 774 844 q 636 916 710 916 q 467 878 542 916 q 378 777 392 840 q 372 726 372 750 q 383 669 372 694 q 392 633 392 648 q 359 593 392 604 q 338 589 347 589 q 286 635 303 589 q 273 730 273 682 q 282 813 273 771 q 408 962 302 906 q 441 978 424 970 l 448 981 m 429 979 q 269 1032 309 985 q 235 1118 235 1073 q 238 1143 235 1131 q 306 1272 256 1230 q 461 1316 355 1316 l 469 1316 q 659 1296 576 1316 q 781 1281 723 1281 q 823 1283 802 1281 q 920 1381 899 1290 q 924 1425 924 1403 q 883 1538 924 1487 q 699 1655 828 1607 q 970 1581 890 1655 q 1028 1438 1028 1529 q 1019 1361 1028 1402 q 856 1191 986 1208 q 746 1183 796 1183 q 639 1194 686 1183 q 477 1214 555 1214 l 472 1214 q 373 1193 398 1214 q 340 1131 349 1172 q 338 1116 338 1124 q 375 1038 338 1080 q 439 984 408 998 l 429 979 z "},"ឫ":{"ha":1252,"x_min":56,"x_max":1288,"o":"m 311 636 q 168 734 212 682 q 134 819 134 774 q 137 845 134 832 q 205 974 155 931 q 331 1017 254 1017 q 500 955 399 1017 q 551 890 551 922 q 546 868 551 879 q 510 846 534 846 q 452 866 487 846 q 330 916 371 916 q 272 895 296 916 q 239 832 248 873 q 237 818 237 825 q 273 739 237 782 q 414 627 317 688 l 360 373 q 348 269 348 315 q 370 170 348 208 q 515 102 409 102 q 728 212 641 102 q 861 543 814 322 l 917 805 q 989 949 935 885 q 1139 1017 1048 1017 q 1246 982 1204 1017 q 1288 897 1288 947 q 1267 814 1288 846 l 1267 821 q 1230 892 1267 870 q 1148 916 1189 916 q 1063 880 1094 916 q 1019 785 1031 844 l 963 524 q 795 131 907 262 q 513 0 682 0 q 281 98 345 0 q 243 252 243 157 q 259 392 243 315 l 311 636 m 644 -119 q 712 -68 644 -68 q 882 -224 882 -68 q 781 -443 882 -327 q 444 -615 681 -559 q 260 -638 345 -638 q 56 -594 144 -638 l 59 -594 q 417 -532 214 -594 q 701 -379 623 -470 q 779 -229 779 -289 q 711 -170 779 -170 q 644 -119 644 -170 l 644 -119 z "},"ឬ":{"ha":1252,"x_min":56,"x_max":1288,"o":"m 311 636 q 168 734 212 682 q 134 819 134 774 q 137 845 134 832 q 205 974 155 931 q 331 1017 254 1017 q 500 955 399 1017 q 551 890 551 922 q 546 868 551 879 q 510 846 534 846 q 452 866 487 846 q 330 916 371 916 q 272 895 296 916 q 239 832 248 873 q 237 818 237 825 q 273 739 237 782 q 414 627 317 688 l 360 373 q 348 269 348 315 q 370 170 348 208 q 515 102 409 102 q 728 212 641 102 q 861 543 814 322 l 917 805 q 989 949 935 885 q 1139 1017 1048 1017 q 1246 982 1204 1017 q 1288 897 1288 947 q 1267 814 1288 846 l 1267 821 q 1230 892 1267 870 q 1148 916 1189 916 q 1063 880 1094 916 q 1019 785 1031 844 l 963 524 q 795 131 907 262 q 513 0 682 0 q 281 98 345 0 q 243 252 243 157 q 259 392 243 315 l 311 636 m 726 -349 q 779 -229 779 -279 q 711 -170 779 -170 q 644 -119 644 -170 l 644 -119 q 712 -68 644 -68 q 882 -224 882 -68 q 814 -401 882 -308 l 863 -430 q 1078 -505 991 -505 l 1086 -505 q 952 -547 1025 -547 q 753 -484 863 -547 l 745 -479 q 444 -615 642 -568 q 260 -638 345 -638 q 56 -594 144 -638 l 59 -594 q 417 -532 214 -594 q 652 -424 570 -486 q 618 -376 618 -402 q 627 -351 618 -364 q 666 -326 641 -326 q 710 -340 685 -326 l 726 -349 z "},"ឭ":{"ha":1287,"x_min":56,"x_max":1200,"o":"m 264 273 l 244 180 q 239 143 239 158 q 243 121 239 130 q 271 102 249 102 q 334 144 294 102 q 381 226 373 186 q 382 235 382 231 q 370 260 382 249 q 328 277 355 275 l 316 277 q 264 273 293 277 m 271 0 q 155 51 186 0 q 136 129 136 81 q 145 203 136 161 l 264 763 q 332 924 284 860 q 458 1018 381 987 l 476 1018 q 642 927 563 1018 q 721 764 696 857 q 837 959 783 900 q 964 1017 890 1017 q 1066 981 1017 1017 q 1150 887 1115 945 q 1193 781 1185 829 q 1200 706 1200 732 q 1191 634 1200 680 l 1061 118 q 928 0 1028 0 q 830 68 851 0 q 827 88 827 77 q 947 363 827 165 q 884 153 884 204 q 886 138 884 144 q 928 102 900 102 q 962 142 950 102 l 1091 652 q 1099 706 1099 688 q 1093 758 1099 723 q 1063 833 1088 791 q 1010 896 1038 876 q 959 916 984 916 q 808 696 911 916 q 661 475 705 475 q 629 541 629 475 q 633 597 629 564 q 641 656 641 627 q 565 852 641 751 q 477 916 516 916 q 410 857 441 897 q 366 749 380 816 l 288 378 q 331 382 311 382 q 391 373 363 382 q 465 316 435 359 q 486 246 486 286 q 481 208 486 228 q 404 69 467 138 q 271 0 339 0 m 645 -119 q 713 -68 645 -68 q 882 -224 882 -68 q 782 -443 882 -327 q 445 -615 682 -559 q 261 -638 346 -638 q 56 -594 144 -638 l 60 -594 q 418 -532 214 -594 q 702 -379 624 -470 q 780 -229 780 -289 q 712 -170 780 -170 q 644 -119 644 -170 l 645 -119 z "},"ឮ":{"ha":1287,"x_min":56,"x_max":1200,"o":"m 264 273 l 244 180 q 239 143 239 158 q 243 121 239 130 q 271 102 249 102 q 334 144 294 102 q 381 226 373 186 q 382 235 382 231 q 370 260 382 249 q 328 277 355 275 l 316 277 q 264 273 293 277 m 271 0 q 155 51 186 0 q 136 129 136 81 q 145 203 136 161 l 264 763 q 332 924 284 860 q 458 1018 381 987 l 476 1018 q 642 927 563 1018 q 721 764 696 857 q 837 959 783 900 q 964 1017 890 1017 q 1066 981 1017 1017 q 1150 887 1115 945 q 1193 781 1185 829 q 1200 706 1200 732 q 1191 634 1200 680 l 1061 118 q 928 0 1028 0 q 830 68 851 0 q 827 88 827 77 q 947 363 827 165 q 884 153 884 204 q 886 138 884 144 q 928 102 900 102 q 962 142 950 102 l 1091 652 q 1099 706 1099 688 q 1093 758 1099 723 q 1063 833 1088 791 q 1010 896 1038 876 q 959 916 984 916 q 808 696 911 916 q 661 475 705 475 q 629 541 629 475 q 633 597 629 564 q 641 656 641 627 q 565 852 641 751 q 477 916 516 916 q 410 857 441 897 q 366 749 380 816 l 288 378 q 331 382 311 382 q 391 373 363 382 q 465 316 435 359 q 486 246 486 286 q 481 208 486 228 q 404 69 467 138 q 271 0 339 0 m 726 -349 q 780 -229 780 -279 q 712 -170 780 -170 q 644 -119 644 -170 l 645 -119 q 713 -68 645 -68 q 882 -224 882 -68 q 815 -401 882 -308 l 863 -430 q 1079 -505 992 -505 l 1086 -505 q 953 -547 1026 -547 q 753 -484 863 -547 l 746 -479 q 445 -615 643 -568 q 261 -638 346 -638 q 56 -594 144 -638 l 60 -594 q 418 -532 214 -594 q 653 -424 570 -486 q 619 -376 619 -402 q 627 -351 619 -364 q 667 -326 642 -326 q 711 -340 686 -326 l 726 -349 z "},"ឯ":{"ha":1016,"x_min":147,"x_max":960,"o":"m 242 499 q 244 519 244 510 q 170 576 244 576 q 258 678 203 678 q 338 627 313 678 q 353 556 353 598 q 344 481 353 523 l 294 248 q 374 271 317 271 q 510 208 444 271 l 635 102 q 682 127 654 102 q 722 205 710 154 q 752 576 752 366 q 726 1012 752 772 q 718 1115 718 1067 q 753 1295 718 1221 q 960 1429 804 1404 q 821 1129 821 1350 q 827 1027 821 1081 q 853 587 853 788 q 823 190 853 366 q 749 47 802 95 q 631 0 695 0 q 451 136 581 0 q 373 170 414 170 q 294 102 332 170 q 186 0 236 0 q 147 39 147 0 q 150 62 147 50 l 163 125 l 242 499 z "},"ឰ":{"ha":1288,"x_min":71,"x_max":1208,"o":"m 271 273 l 252 180 q 247 143 247 158 q 250 121 247 130 q 278 102 256 102 q 341 144 302 102 q 389 226 380 186 q 390 235 390 231 q 378 260 390 249 q 336 277 363 275 l 323 277 q 271 273 300 277 m 1069 118 q 732 -204 997 -149 l 365 -277 q 230 -317 277 -296 q 178 -363 183 -338 q 176 -378 176 -371 q 184 -407 176 -394 q 222 -441 195 -427 q 280 -460 249 -456 q 306 -461 292 -461 q 346 -458 325 -461 q 397 -429 381 -452 q 412 -374 412 -408 l 412 -355 q 467 -274 412 -285 q 484 -272 475 -272 q 630 -335 541 -272 q 768 -401 724 -401 q 776 -400 772 -401 q 846 -332 819 -393 q 868 -264 868 -286 q 867 -256 868 -259 q 859 -227 859 -239 q 892 -194 859 -203 q 913 -191 903 -191 q 965 -227 947 -191 q 972 -260 972 -241 q 937 -378 972 -305 q 876 -462 911 -432 q 797 -500 842 -492 q 773 -502 785 -502 q 694 -486 738 -502 q 564 -412 636 -464 l 515 -378 l 515 -393 q 488 -497 515 -458 q 391 -553 456 -541 q 313 -559 351 -559 q 266 -557 289 -559 q 155 -521 207 -549 q 83 -449 102 -492 q 71 -391 71 -422 q 76 -347 71 -370 q 155 -245 88 -287 q 342 -178 222 -203 l 713 -104 q 969 142 913 -61 l 1099 652 q 1106 706 1106 688 q 1101 758 1106 723 q 1070 833 1095 791 q 1018 896 1045 876 q 966 916 991 916 q 816 696 919 916 q 669 475 713 475 q 637 541 637 475 q 641 597 637 564 q 648 656 648 627 q 572 852 648 751 q 484 916 524 916 q 418 857 448 897 q 373 749 387 816 l 295 378 q 338 382 318 382 q 398 373 371 382 q 472 316 442 359 q 493 246 493 286 q 489 208 493 228 q 411 69 475 138 q 278 0 347 0 q 162 51 193 0 q 144 129 144 81 q 153 203 144 161 l 272 763 q 340 924 292 860 q 465 1018 389 987 l 484 1018 q 650 927 570 1018 q 728 764 704 857 q 844 959 791 900 q 971 1017 898 1017 q 1074 981 1025 1017 q 1158 887 1122 945 q 1200 781 1192 829 q 1208 706 1208 732 q 1198 634 1208 680 l 1069 118 z "},"ឱ":{"ha":1017,"x_min":203,"x_max":951,"o":"m 513 1002 q 652 1017 578 1017 q 838 952 779 1017 q 879 831 879 907 q 869 751 879 795 q 623 448 844 624 q 305 153 305 197 q 336 116 305 131 q 408 102 367 102 q 655 239 489 102 q 792 391 781 342 q 855 441 804 441 q 896 403 896 441 q 892 378 896 392 l 845 157 q 738 -26 822 46 q 475 -134 654 -99 q 668 11 610 -65 q 743 170 727 86 q 404 0 534 0 q 287 25 337 0 q 203 159 203 67 q 555 526 203 248 q 770 766 751 681 q 774 802 774 785 q 748 874 774 844 q 636 916 710 916 q 467 878 542 916 q 378 777 392 840 q 372 726 372 750 q 383 669 372 694 q 392 633 392 648 q 359 593 392 604 q 338 589 347 589 q 286 635 303 589 q 273 730 273 682 q 282 813 273 770 q 390 952 300 898 q 317 1005 333 992 q 283 1048 296 1020 q 271 1116 271 1077 q 290 1192 271 1156 q 346 1259 308 1228 q 437 1307 386 1291 q 576 1323 490 1323 q 854 1257 758 1323 q 951 1080 950 1190 q 821 1186 913 1150 q 579 1221 727 1221 q 418 1185 466 1221 q 374 1120 374 1149 q 410 1067 374 1092 l 513 1002 z "},"ឲ":{"ha":1021,"x_min":191,"x_max":977,"o":"m 736 136 q 793 213 786 170 q 794 218 794 215 q 704 296 794 248 q 619 393 619 342 q 621 409 619 401 q 720 493 635 470 q 871 574 860 531 q 872 585 872 580 q 836 627 872 612 q 699 645 793 645 q 633 621 659 645 q 597 550 608 597 q 538 485 581 485 q 530 486 534 485 q 492 533 492 491 q 496 563 492 546 q 572 701 515 654 q 720 747 627 747 q 929 700 866 747 q 977 603 977 665 q 972 560 977 583 q 903 464 960 505 q 739 393 844 422 q 867 295 828 345 q 897 215 897 256 q 894 191 897 203 q 801 59 880 119 q 591 0 723 0 l 512 0 q 342 31 411 0 q 235 125 273 62 q 192 282 197 188 q 191 315 191 298 q 212 501 191 397 l 240 632 q 336 924 288 860 q 465 1006 385 987 q 566 1019 517 1019 q 618 1015 593 1019 q 760 977 690 1003 q 881 912 829 949 q 954 834 939 876 q 606 913 848 906 q 568 916 587 916 q 497 908 531 916 q 414 857 445 897 q 340 612 384 816 l 311 475 q 294 334 294 396 q 295 312 294 323 q 326 195 299 242 q 403 125 353 149 q 526 102 452 102 l 602 102 q 736 136 686 102 z "},"ឳ":{"ha":1015,"x_min":203,"x_max":975,"o":"m 764 1151 q 766 1148 765 1149 q 839 1117 804 1117 q 855 1120 855 1117 q 843 1127 855 1122 q 764 1151 801 1140 m 623 1295 q 651 1381 631 1334 q 820 1517 689 1481 q 853 1522 838 1522 q 905 1487 892 1522 q 908 1468 908 1477 q 857 1417 908 1434 q 742 1331 766 1395 q 720 1267 726 1295 q 857 1224 782 1249 q 975 1110 975 1190 l 975 1102 q 838 1015 969 1015 q 701 1066 763 1015 q 621 1190 642 1114 q 464 1221 502 1221 q 351 1185 398 1221 q 306 1120 306 1149 q 342 1067 306 1092 l 465 989 l 448 981 q 652 1017 539 1017 q 838 952 779 1017 q 879 831 879 907 q 869 751 879 795 q 623 448 844 624 q 305 153 305 197 q 336 116 305 131 q 408 102 367 102 q 655 239 489 102 q 792 391 781 342 q 855 441 804 441 q 896 403 896 441 q 892 378 896 392 l 845 157 q 738 -26 822 46 q 475 -134 654 -99 q 668 11 610 -65 q 743 170 727 86 q 404 0 534 0 q 287 25 337 0 q 203 159 203 67 q 555 526 203 248 q 770 766 751 681 q 774 802 774 785 q 748 874 774 844 q 636 916 710 916 q 467 878 542 916 q 378 777 392 840 q 372 726 372 750 q 383 669 372 694 q 392 633 392 648 q 359 593 392 604 q 338 589 347 589 q 286 635 303 589 q 273 730 273 682 q 282 813 273 770 q 397 956 301 901 l 349 933 q 249 1005 269 989 q 216 1048 229 1020 q 203 1116 203 1077 q 222 1192 203 1156 q 278 1259 240 1228 q 370 1307 318 1291 q 461 1323 422 1323 q 623 1295 511 1323 z "},"ា":{"ha":474,"x_min":-280,"x_max":389,"o":"m -280 713 q -105 965 -206 913 q 99 1017 -4 1017 q 336 925 256 1017 q 389 762 389 864 q 376 650 389 711 l 258 118 q 124 0 224 0 q 26 68 47 0 q 24 88 24 77 q 144 363 24 165 q 81 153 81 204 q 83 138 81 144 q 125 102 96 102 q 158 142 146 102 l 274 660 q 283 739 283 703 q 248 852 283 810 q 100 916 194 916 q -280 713 -97 916 z "},"ិ":{"ha":0,"x_min":-909,"x_max":20,"o":"m -35 1222 q -84 1232 -56 1224 q -435 1286 -198 1263 l -677 1313 q -860 1370 -801 1320 q -901 1429 -888 1394 q -909 1481 -909 1452 q -907 1509 -909 1494 q -842 1632 -897 1586 q -686 1691 -786 1677 q -624 1695 -654 1695 q -525 1685 -574 1695 q -368 1620 -446 1667 q -198 1508 -269 1561 q -81 1408 -127 1455 q 19 1258 8 1314 q 20 1248 20 1253 q -1 1223 20 1228 q -16 1221 -7 1221 q -35 1222 -24 1221 m -416 1372 q -130 1329 -241 1351 q -260 1439 -191 1385 q -422 1549 -329 1493 q -547 1600 -485 1586 q -623 1610 -585 1610 q -669 1607 -646 1610 q -780 1565 -745 1596 q -809 1503 -809 1541 q -808 1486 -809 1495 q -768 1428 -803 1450 q -669 1399 -734 1406 l -416 1372 z "},"ី":{"ha":0,"x_min":-906,"x_max":80,"o":"m -12 1222 q -23 1221 -17 1221 q -68 1227 -41 1221 q -426 1277 -187 1259 l -667 1298 q -852 1352 -792 1302 q -896 1412 -882 1377 q -906 1476 -906 1440 q -905 1494 -906 1485 q -844 1624 -898 1575 q -690 1689 -789 1672 q -616 1695 -652 1695 q -529 1687 -572 1695 q -370 1624 -449 1670 q -197 1512 -269 1565 q -76 1412 -123 1459 l -59 1394 q -20 1650 -29 1524 q 29 1690 -16 1690 l 34 1690 q 80 1651 80 1688 l 80 1646 q 35 1350 67 1491 l 14 1256 q -12 1222 7 1225 m -410 1365 q -121 1328 -233 1348 q -255 1439 -184 1385 q -421 1548 -327 1493 q -548 1598 -486 1586 q -618 1606 -583 1606 q -670 1602 -644 1606 q -780 1556 -747 1588 q -807 1493 -807 1531 q -805 1473 -807 1484 q -763 1414 -798 1436 q -663 1387 -728 1392 l -410 1365 z "},"ឹ":{"ha":0,"x_min":-906,"x_max":206,"o":"m -94 1581 q -106 1572 -94 1581 q -127 1537 -118 1563 q -133 1506 -133 1520 q -130 1484 -133 1495 q -102 1436 -123 1457 q -50 1408 -81 1415 q -16 1403 -33 1403 q 11 1406 -3 1403 q 65 1430 41 1411 q 99 1474 90 1448 q 104 1505 104 1489 q 101 1527 104 1516 q 73 1574 94 1553 q 20 1603 51 1595 q -16 1607 1 1607 q -40 1605 -28 1607 q -94 1581 -69 1599 m -165 1365 q -255 1433 -208 1400 q -423 1539 -328 1485 q -551 1586 -489 1575 q -615 1592 -583 1592 q -674 1587 -645 1592 q -783 1539 -750 1573 q -808 1479 -808 1515 q -806 1457 -808 1469 q -762 1399 -798 1420 q -661 1374 -726 1379 l -408 1358 q -119 1326 -231 1343 q -161 1362 -140 1344 q -165 1365 -163 1364 m 7 1316 q 35 1259 28 1284 q 36 1249 36 1253 q 16 1223 36 1230 q 2 1221 10 1221 l -17 1221 q -67 1229 -38 1222 q -422 1270 -182 1256 l -664 1286 q -850 1336 -789 1287 q -895 1394 -880 1360 q -906 1461 -906 1424 l -906 1476 q -848 1605 -901 1556 q -696 1673 -795 1655 q -614 1681 -655 1681 q -535 1674 -574 1681 q -374 1614 -454 1659 q -233 1531 -294 1571 q -224 1563 -230 1546 q -162 1647 -208 1613 q -62 1691 -117 1681 q -16 1695 -39 1695 q 50 1687 16 1695 q 148 1633 107 1672 q 201 1545 188 1594 q 206 1505 206 1525 q 196 1448 206 1476 q 134 1364 179 1398 q 33 1319 88 1330 q 7 1316 20 1317 z "},"ឺ":{"ha":0,"x_min":-905,"x_max":83,"o":"m -300 1447 q -420 1516 -354 1481 q -546 1562 -484 1550 q -618 1569 -583 1569 q -668 1566 -644 1569 q -779 1526 -745 1554 q -806 1470 -806 1503 q -804 1453 -806 1461 q -764 1400 -798 1419 q -664 1374 -728 1380 l -411 1353 q -123 1318 -235 1336 q -229 1399 -173 1359 q -248 1396 -237 1396 q -262 1397 -254 1396 q -301 1435 -301 1404 q -300 1447 -301 1440 m -189 1478 q -77 1392 -120 1432 l -60 1375 q -17 1603 -28 1491 q 32 1638 -13 1638 l 37 1638 q 83 1603 83 1636 l 83 1598 q 34 1336 68 1461 l 12 1252 q -15 1221 4 1224 q -24 1221 -19 1221 q -71 1227 -42 1221 q -428 1275 -190 1256 l -669 1295 q -854 1345 -794 1300 q -897 1399 -883 1367 q -905 1452 -905 1423 q -905 1472 -905 1462 q -842 1587 -896 1544 q -687 1644 -787 1630 q -616 1649 -652 1649 q -526 1640 -571 1649 q -368 1583 -446 1625 q -279 1533 -320 1558 l -249 1658 q -203 1695 -239 1695 q -186 1694 -195 1695 q -146 1655 -146 1687 q -148 1639 -146 1648 l -189 1478 z "},"ុ":{"ha":0,"x_min":-441,"x_max":-230,"o":"m -378 -576 q -419 -536 -419 -576 q -416 -509 -419 -524 l -348 -189 l -348 -186 q -409 -169 -348 -169 q -441 -170 -423 -169 q -304 -68 -376 -68 q -230 -117 -230 -68 q -233 -136 -230 -126 l -315 -526 q -378 -576 -326 -576 z "},"ូ":{"ha":0,"x_min":-711,"x_max":-289,"o":"m -344 -27 q -289 -190 -289 -94 q -315 -333 -289 -255 q -402 -515 -353 -454 q -511 -576 -451 -576 q -639 -509 -606 -576 q -656 -418 -656 -473 q -643 -306 -656 -369 l -618 -189 l -618 -186 q -679 -169 -618 -169 q -711 -170 -693 -169 q -574 -68 -646 -68 q -500 -117 -500 -68 q -503 -136 -500 -126 l -543 -327 q -554 -410 -554 -377 q -551 -438 -554 -426 q -513 -475 -543 -475 q -464 -433 -489 -475 q -413 -308 -439 -391 q -344 -27 -355 -125 z "},"ួ":{"ha":0,"x_min":-766,"x_max":-140,"o":"m -140 -34 q -267 -429 -205 -141 q -396 -576 -295 -576 q -560 -500 -460 -576 q -618 -475 -593 -475 q -640 -524 -629 -475 q -703 -576 -651 -576 q -744 -536 -744 -576 q -741 -512 -744 -526 l -673 -189 l -673 -186 q -734 -169 -673 -169 q -766 -170 -748 -169 q -629 -68 -701 -68 q -555 -117 -555 -68 q -557 -136 -555 -126 l -607 -372 q -494 -423 -561 -372 q -404 -475 -428 -475 q -366 -405 -380 -475 q -140 -34 -307 -125 z "},"ើ":{"ha":0,"x_min":-906,"x_max":80,"o":"m -12 1222 q -23 1221 -17 1221 q -68 1227 -41 1221 q -426 1277 -187 1259 l -667 1298 q -852 1352 -792 1302 q -896 1412 -882 1377 q -906 1476 -906 1440 q -905 1494 -906 1485 q -844 1624 -898 1575 q -690 1689 -789 1672 q -616 1695 -652 1695 q -529 1687 -572 1695 q -370 1624 -449 1670 q -197 1512 -269 1565 q -76 1412 -123 1459 l -59 1394 q -20 1650 -29 1524 q 29 1690 -16 1690 l 34 1690 q 80 1651 80 1688 l 80 1646 q 35 1350 67 1491 l 14 1256 q -12 1222 7 1225 m -410 1365 q -121 1328 -233 1348 q -255 1439 -184 1385 q -421 1548 -327 1493 q -548 1598 -486 1586 q -618 1606 -583 1606 q -670 1602 -644 1606 q -780 1556 -747 1588 q -807 1493 -807 1531 q -805 1473 -807 1484 q -763 1414 -798 1436 q -663 1387 -728 1392 l -410 1365 z "},"ឿ":{"ha":677,"x_min":-353,"x_max":738,"o":"m 402 865 q 342 916 383 916 q 279 896 291 916 q 272 873 272 884 q 275 862 272 867 q 337 848 283 848 q 402 865 368 848 m 488 931 q 548 1019 531 975 q 562 1086 562 1056 q 557 1120 562 1104 q 498 1185 545 1162 q 338 1217 452 1208 q 503 1248 436 1248 q 537 1245 521 1248 q 644 1152 610 1234 q 661 1069 661 1112 q 644 983 661 1027 q 519 821 610 897 q 517 820 519 821 q 518 791 518 806 q 483 524 518 692 l 328 -189 q -61 -576 245 -576 q -353 -330 -353 -576 q -339 -210 -353 -275 l -322 -130 q -258 -68 -310 -68 q -218 -113 -218 -68 q -222 -144 -218 -126 l -239 -227 q -249 -308 -249 -271 q -50 -475 -249 -475 q 227 -172 163 -475 l 381 543 q 415 761 410 680 q 325 747 371 747 q 185 814 220 747 q 169 875 169 844 q 193 949 169 912 q 355 1017 236 1017 q 488 931 444 1017 m 467 1497 q 578 1421 534 1456 l 595 1406 q 638 1607 627 1508 q 686 1638 642 1638 l 692 1638 q 738 1607 738 1636 l 738 1603 q 689 1371 723 1482 l 667 1297 q 640 1271 659 1273 q 630 1270 635 1270 q 585 1276 612 1270 q 227 1318 465 1301 l -14 1335 q -199 1379 -139 1340 q -241 1427 -228 1399 q -250 1474 -250 1448 q -250 1492 -250 1482 q -186 1592 -241 1554 q -32 1643 -132 1630 q 37 1647 3 1647 q 130 1639 83 1647 q 288 1589 209 1626 q 376 1546 335 1567 l 406 1655 q 452 1688 416 1688 q 469 1687 460 1688 q 509 1652 509 1680 q 507 1638 509 1646 l 467 1497 m 355 1469 q 235 1531 301 1499 q 109 1571 172 1560 q 39 1577 74 1577 q -13 1573 13 1577 q -123 1539 -90 1564 q -151 1489 -151 1519 q -149 1474 -151 1482 q -109 1428 -143 1445 q -9 1405 -73 1411 l 244 1387 q 532 1355 420 1371 q 427 1427 481 1392 q 408 1424 418 1424 q 393 1426 401 1424 q 354 1459 354 1432 q 355 1469 354 1463 z "},"ៀ":{"ha":621,"x_min":-353,"x_max":661,"o":"m 402 865 q 342 916 383 916 q 279 896 291 916 q 272 873 272 884 q 275 862 272 867 q 337 848 283 848 q 402 865 368 848 m 488 931 q 548 1019 531 975 q 562 1086 562 1056 q 557 1120 562 1104 q 498 1185 545 1162 q 338 1217 452 1208 q 503 1248 436 1248 q 537 1245 521 1248 q 644 1152 610 1234 q 661 1069 661 1112 q 644 983 661 1027 q 519 821 610 897 q 517 820 519 821 q 518 791 518 806 q 483 524 518 692 l 328 -189 q -61 -576 245 -576 q -353 -330 -353 -576 q -339 -210 -353 -275 l -322 -130 q -258 -68 -310 -68 q -218 -113 -218 -68 q -222 -144 -218 -126 l -239 -227 q -249 -308 -249 -271 q -50 -475 -249 -475 q 227 -172 163 -475 l 381 543 q 415 761 410 680 q 325 747 371 747 q 185 814 220 747 q 169 875 169 844 q 193 949 169 912 q 355 1017 236 1017 q 488 931 444 1017 z "},"េ":{"ha":678,"x_min":140,"x_max":746,"o":"m 241 302 l 241 204 q 255 121 241 140 q 305 102 269 102 q 377 161 359 102 q 386 216 386 191 q 376 264 386 242 q 303 304 359 304 l 294 304 l 241 302 m 311 0 q 176 48 213 0 q 140 204 140 96 q 165 422 141 312 l 212 641 q 368 928 264 840 q 550 1017 473 1017 q 675 964 620 1017 q 746 814 730 911 q 552 916 652 916 q 426 846 498 916 q 312 623 353 777 l 264 400 l 300 405 q 321 406 310 406 q 399 387 359 406 q 479 299 448 361 q 492 234 492 272 q 470 119 492 185 q 311 0 431 0 z "},"ែ":{"ha":683,"x_min":75,"x_max":813,"o":"m 241 302 l 241 204 q 255 121 241 140 q 304 102 269 102 q 376 161 358 102 q 385 216 385 191 q 376 264 385 242 q 302 304 358 304 l 294 304 l 241 302 m 311 0 q 176 48 212 0 q 139 204 139 96 q 164 422 140 312 l 211 641 q 368 928 263 840 q 549 1017 472 1017 q 674 964 619 1017 q 745 814 729 911 q 551 916 652 916 q 425 846 497 916 q 311 623 353 777 l 264 400 l 299 405 q 320 406 309 406 q 398 387 359 406 q 478 299 448 361 q 491 234 491 272 q 469 119 491 185 q 311 0 430 0 m 396 1297 q 401 1322 401 1312 q 370 1357 401 1349 q 353 1360 361 1360 q 312 1329 325 1360 q 309 1316 309 1322 q 382 1263 309 1284 l 396 1297 m 483 1236 q 534 1233 510 1233 q 597 1239 569 1233 q 699 1331 675 1259 q 709 1388 709 1361 q 691 1456 709 1425 q 578 1546 663 1510 q 361 1608 468 1592 q 250 1616 304 1616 q 144 1609 197 1616 l 75 1598 q 384 1689 236 1689 q 404 1689 394 1689 q 622 1632 498 1685 q 790 1495 747 1579 q 813 1397 813 1451 q 796 1299 813 1352 q 647 1153 759 1185 q 541 1139 600 1139 q 349 1166 458 1139 q 222 1234 255 1190 q 202 1291 202 1259 q 213 1342 202 1315 q 287 1428 239 1404 q 347 1440 314 1440 q 406 1432 374 1440 q 498 1371 477 1414 q 509 1327 509 1352 q 494 1261 509 1297 l 483 1236 z "},"ៃ":{"ha":678,"x_min":140,"x_max":747,"o":"m 465 1354 q 494 1319 494 1341 q 484 1289 494 1306 q 469 1242 469 1262 q 469 1234 469 1238 q 503 1202 474 1212 q 522 1199 513 1199 q 559 1212 541 1199 q 616 1278 589 1230 q 633 1329 633 1306 q 626 1354 633 1343 q 547 1397 608 1385 q 475 1461 488 1409 l 454 1529 q 380 1607 435 1596 q 336 1612 359 1612 q 267 1601 302 1612 q 140 1522 208 1584 q 249 1668 178 1627 q 355 1694 296 1694 q 420 1687 386 1694 q 553 1549 519 1666 l 572 1479 q 730 1397 695 1454 q 744 1346 744 1374 q 713 1252 744 1305 q 598 1132 662 1164 q 524 1114 563 1114 q 457 1126 492 1114 q 364 1200 380 1150 q 359 1229 359 1213 q 391 1323 359 1270 q 441 1359 412 1359 q 465 1354 452 1359 m 243 302 l 243 204 q 257 121 243 140 q 307 102 271 102 q 378 161 360 102 q 387 216 387 191 q 378 264 387 242 q 304 304 360 304 l 296 304 l 243 302 m 313 0 q 178 48 214 0 q 141 204 141 96 q 166 422 142 312 l 213 641 q 370 928 265 840 q 551 1017 474 1017 q 676 964 621 1017 q 747 814 731 911 q 553 916 654 916 q 427 846 499 916 q 313 623 355 777 l 266 400 l 301 405 q 322 406 311 406 q 400 387 361 406 q 480 299 450 361 q 493 234 493 272 q 471 119 493 185 q 313 0 432 0 z "},"ោ":{"ha":474,"x_min":-280,"x_max":389,"o":"m -280 713 q -105 965 -206 913 q 99 1017 -4 1017 q 336 925 256 1017 q 389 762 389 864 q 376 650 389 711 l 258 118 q 124 0 224 0 q 26 68 47 0 q 24 88 24 77 q 144 363 24 165 q 81 153 81 204 q 83 138 81 144 q 125 102 96 102 q 158 142 146 102 l 274 660 q 283 739 283 703 q 248 852 283 810 q 100 916 194 916 q -280 713 -97 916 z "},"ៅ":{"ha":477,"x_min":-280,"x_max":464,"o":"m 315 946 l 359 1154 q 361 1170 361 1162 q 338 1224 361 1200 q 268 1255 308 1255 l 133 1255 q 66 1305 66 1255 q 134 1356 66 1356 l 270 1356 q 415 1291 351 1356 q 464 1176 464 1240 q 459 1135 464 1156 l 387 802 q 389 762 389 783 q 376 650 389 711 l 258 118 q 124 0 224 0 q 26 68 47 0 q 24 88 24 77 q 144 363 24 165 q 81 153 81 204 q 83 138 81 144 q 125 102 96 102 q 158 142 146 102 l 274 660 q 283 739 283 703 q 248 852 283 810 q 100 916 194 916 q -280 713 -97 916 q -105 965 -206 913 q 99 1017 -4 1017 q 315 946 237 1017 z "},"ំ":{"ha":0,"x_min":-677,"x_max":-305,"o":"m -407 1305 q -428 1369 -407 1348 q -492 1390 -449 1390 q -555 1369 -534 1390 q -576 1305 -576 1348 q -555 1242 -576 1263 q -492 1221 -534 1221 q -428 1242 -449 1221 q -407 1305 -407 1263 m -492 1491 q -400 1467 -445 1491 q -331 1398 -356 1442 q -305 1304 -305 1353 q -330 1212 -305 1256 q -399 1143 -355 1168 q -492 1119 -443 1119 q -584 1143 -540 1119 q -653 1212 -629 1168 q -677 1304 -677 1256 q -652 1398 -677 1353 q -583 1467 -627 1442 q -492 1491 -538 1491 z "},"ះ":{"ha":678,"x_min":142,"x_max":650,"o":"m 549 832 q 528 896 549 875 q 465 917 507 917 q 401 896 422 917 q 380 832 380 875 q 401 768 380 789 q 465 747 422 747 q 528 768 507 747 q 549 832 549 789 m 465 1017 q 556 993 511 1017 q 625 924 600 969 q 650 831 650 880 q 626 739 650 783 q 557 670 602 694 q 465 646 513 646 q 372 670 416 646 q 303 739 328 694 q 279 831 279 783 q 303 924 279 880 q 373 993 328 969 q 465 1017 417 1017 m 412 186 q 391 250 412 229 q 328 271 370 271 q 264 250 285 271 q 243 186 243 229 q 264 123 243 144 q 328 102 285 102 q 391 123 370 102 q 412 186 412 144 m 328 372 q 419 348 374 372 q 489 279 463 323 q 514 186 514 234 q 489 93 514 137 q 420 24 465 49 q 328 0 376 0 q 235 24 279 0 q 166 93 191 49 q 142 186 142 137 q 167 279 142 234 q 236 348 192 323 q 328 372 281 372 z "},"ៈ":{"ha":576,"x_min":142,"x_max":517,"o":"m 397 917 q 456 901 428 917 q 501 857 485 886 q 517 798 517 829 q 501 738 517 766 q 457 694 486 710 q 397 679 429 679 q 338 694 367 679 q 294 738 310 710 q 279 798 279 766 q 295 857 279 829 q 339 901 311 886 q 397 917 368 917 m 260 237 q 318 221 290 237 q 363 178 347 206 q 379 118 379 149 q 363 59 379 87 q 319 16 348 31 q 260 0 291 0 q 201 16 230 0 q 157 59 173 31 q 142 118 142 87 q 158 178 142 149 q 202 221 174 206 q 260 237 231 237 z "},"៉":{"ha":0,"x_min":-749,"x_max":-275,"o":"m -735 1139 q -749 1232 -749 1172 q -716 1481 -749 1324 l -698 1567 q -633 1628 -685 1628 q -593 1582 -593 1628 q -597 1549 -593 1568 l -616 1461 q -735 1139 -671 1197 m -416 1139 q -430 1232 -430 1172 q -397 1481 -430 1324 l -379 1567 q -315 1628 -366 1628 q -275 1582 -275 1628 q -279 1549 -275 1568 l -297 1461 q -416 1139 -352 1197 z "},"៊":{"ha":0,"x_min":-1105,"x_max":-17,"o":"m -963 1053 q -975 1051 -968 1051 q -1042 1071 -999 1051 q -1104 1163 -1096 1096 q -1105 1179 -1105 1171 q -1046 1287 -1105 1237 q -848 1356 -980 1343 q -824 1357 -836 1357 q -620 1286 -729 1357 q -530 1240 -549 1240 l -529 1240 q -444 1284 -511 1241 q -290 1335 -375 1328 q -269 1337 -279 1337 q -107 1257 -193 1337 q -19 1157 -22 1177 q -17 1135 -17 1138 q -159 1215 -83 1176 q -273 1249 -227 1249 q -283 1249 -278 1249 q -372 1220 -331 1244 q -522 1153 -467 1158 l -530 1153 q -675 1212 -583 1153 q -823 1270 -764 1270 q -834 1270 -829 1270 q -966 1231 -926 1261 q -1003 1179 -1003 1202 l -1003 1175 q -962 1133 -1000 1151 q -929 1097 -929 1118 q -930 1088 -929 1093 q -963 1053 -938 1061 z "},"់":{"ha":0,"x_min":-593,"x_max":-437,"o":"m -579 1139 q -593 1232 -593 1172 q -560 1481 -593 1324 l -542 1567 q -477 1628 -529 1628 q -437 1582 -437 1628 q -441 1549 -437 1568 l -460 1461 q -579 1139 -515 1197 z "},"៌":{"ha":0,"x_min":-925,"x_max":-124,"o":"m -212 1140 q -250 1118 -231 1118 q -282 1132 -266 1118 l -319 1162 q -493 1242 -391 1223 q -553 1247 -520 1247 q -761 1209 -640 1247 l -853 1187 q -888 1183 -873 1183 q -916 1191 -907 1183 q -925 1214 -925 1198 q -920 1244 -925 1226 l -893 1322 q -719 1538 -841 1479 q -497 1601 -596 1598 l -483 1601 q -284 1553 -378 1601 q -124 1374 -184 1501 q -272 1457 -208 1436 q -485 1499 -396 1499 l -490 1499 q -662 1453 -567 1497 q -790 1310 -757 1407 q -555 1348 -656 1348 q -473 1341 -511 1348 q -262 1249 -347 1318 l -221 1214 q -197 1173 -197 1194 q -212 1140 -197 1157 z "},"៍":{"ha":0,"x_min":-807,"x_max":-92,"o":"m -426 1152 q -475 1120 -433 1120 q -503 1122 -488 1120 q -726 1219 -628 1144 q -806 1324 -798 1272 q -807 1337 -807 1331 q -758 1425 -807 1381 q -654 1460 -713 1460 q -618 1457 -637 1460 q -433 1371 -537 1443 q -405 1361 -420 1361 q -347 1388 -380 1361 l -265 1455 q -132 1678 -132 1563 q -132 1692 -132 1685 q -92 1569 -92 1628 q -186 1402 -92 1480 l -272 1333 q -389 1278 -332 1283 q -407 1276 -398 1276 q -501 1308 -454 1276 q -614 1371 -569 1356 q -654 1379 -637 1379 q -683 1371 -671 1379 q -696 1341 -696 1357 q -693 1326 -696 1334 q -643 1272 -683 1301 q -481 1202 -561 1216 q -425 1162 -425 1192 q -426 1152 -425 1157 z "},"៎":{"ha":0,"x_min":-759,"x_max":-326,"o":"m -499 1324 l -526 1197 q -591 1139 -539 1139 q -630 1185 -630 1139 q -625 1222 -630 1201 l -599 1347 l -701 1371 q -759 1423 -759 1384 q -758 1436 -759 1429 q -707 1474 -749 1474 q -677 1470 -694 1474 l -578 1447 l -553 1567 q -489 1628 -541 1628 q -449 1582 -449 1628 q -453 1549 -449 1568 l -479 1424 l -385 1402 q -326 1351 -326 1389 q -328 1337 -326 1345 q -379 1299 -337 1299 q -409 1303 -393 1299 l -499 1324 z "},"៏":{"ha":0,"x_min":-929,"x_max":17,"o":"m -460 1189 q -516 1119 -471 1119 q -659 1177 -561 1119 q -716 1198 -694 1198 q -741 1188 -732 1198 q -881 1119 -814 1119 q -924 1143 -914 1119 q -929 1170 -929 1154 q -923 1213 -929 1188 l -888 1350 q -806 1453 -868 1427 q -731 1467 -774 1467 q -642 1455 -691 1467 l -524 1428 q -505 1426 -513 1426 q -429 1466 -462 1426 l -330 1576 q -236 1666 -269 1647 q -137 1697 -188 1695 l -134 1697 q -33 1662 -83 1697 q 17 1535 17 1627 l 17 1524 l -16 1554 q -128 1612 -77 1612 l -130 1612 q -237 1540 -174 1612 l -342 1418 q -441 1352 -386 1369 q -504 1343 -471 1343 q -565 1350 -533 1343 l -673 1376 q -718 1382 -698 1382 q -751 1376 -736 1382 q -788 1333 -780 1365 l -808 1254 q -725 1288 -773 1288 l -720 1288 q -602 1246 -667 1286 l -557 1221 q -500 1259 -552 1259 q -456 1220 -456 1259 q -457 1206 -456 1214 l -460 1189 z "},"័":{"ha":0,"x_min":-644,"x_max":68,"o":"m -475 1424 q -398 1403 -424 1424 q -373 1339 -373 1382 q -424 1289 -373 1289 q -475 1322 -475 1289 q -541 1289 -541 1322 q -507 1238 -541 1255 q -407 1221 -473 1221 q -127 1272 -220 1221 q -34 1424 -34 1322 q -71 1548 -34 1501 q -297 1665 -136 1630 q -172 1685 -233 1685 q -115 1681 -143 1685 q 12 1612 -27 1666 q 68 1424 68 1541 q -51 1196 68 1272 q -407 1119 -170 1119 q -585 1162 -526 1119 q -644 1289 -644 1204 q -602 1390 -644 1356 q -475 1424 -559 1424 z "},"៑":{"ha":0,"x_min":-949,"x_max":-136,"o":"m -203 1221 q -136 1170 -136 1221 q -203 1119 -136 1119 l -875 1119 q -949 1170 -949 1119 q -875 1221 -949 1221 l -203 1221 z "},"្":{"ha":0,"x_min":-576,"x_max":-305,"o":"m -305 -305 l -407 -305 l -407 -407 l -475 -407 l -475 -305 l -576 -305 l -576 -237 l -475 -237 l -475 -136 l -407 -136 l -407 -237 l -305 -237 l -305 -305 z "},"៓":{"ha":0,"x_min":-695,"x_max":-356,"o":"m -627 1187 q -602 1136 -627 1153 q -526 1119 -576 1119 q -449 1136 -475 1119 q -424 1187 -424 1153 q -449 1238 -424 1221 q -526 1255 -475 1255 q -602 1238 -576 1255 q -627 1187 -627 1221 m -356 1187 q -399 1085 -356 1119 q -526 1051 -441 1051 q -652 1085 -610 1051 q -695 1187 -695 1119 q -652 1289 -695 1255 q -526 1322 -610 1322 q -399 1289 -441 1322 q -356 1187 -356 1255 z "},"។":{"ha":949,"x_min":203,"x_max":905,"o":"m 407 1017 q 475 966 475 1017 q 407 916 475 916 q 330 890 356 916 q 305 814 305 865 q 339 737 305 763 q 441 712 373 712 q 677 778 576 712 q 801 956 777 843 q 865 1017 814 1017 q 905 974 905 1017 q 901 943 905 960 l 714 58 q 650 -1 701 -1 q 610 45 610 -1 q 614 77 610 59 l 745 697 q 441 610 623 610 q 256 661 309 610 q 203 814 203 712 q 254 966 203 916 q 407 1017 305 1017 z "},"៕":{"ha":1255,"x_min":203,"x_max":1190,"o":"m 407 1017 q 475 966 475 1017 q 407 916 475 916 q 330 890 356 916 q 305 814 305 865 q 339 737 305 763 q 441 712 373 712 q 677 778 576 712 q 801 956 777 843 q 865 1017 814 1017 q 905 974 905 1017 q 901 943 905 960 l 714 58 q 650 -1 701 -1 q 610 45 610 -1 q 614 77 610 59 l 745 697 q 441 610 623 610 q 256 661 309 610 q 203 814 203 712 q 254 966 203 916 q 407 1017 305 1017 m 1086 956 q 1150 1017 1099 1017 q 1190 974 1190 1017 q 1186 943 1190 960 l 999 58 q 935 -1 986 -1 q 895 45 895 -1 q 899 77 895 59 l 1086 956 z "},"៖":{"ha":717,"x_min":70,"x_max":720,"o":"m 549 832 q 528 896 549 875 q 465 917 507 917 q 401 896 422 917 q 380 832 380 875 q 401 768 380 789 q 465 747 422 747 q 528 768 507 747 q 549 832 549 789 m 465 1017 q 556 993 511 1017 q 625 924 600 969 q 650 831 650 880 q 626 739 650 783 q 557 670 602 694 q 465 646 513 646 q 372 670 416 646 q 303 739 328 694 q 279 831 279 783 q 303 924 279 880 q 373 993 328 969 q 465 1017 417 1017 m 412 186 q 391 250 412 229 q 328 271 370 271 q 264 250 285 271 q 243 186 243 229 q 264 123 243 144 q 328 102 285 102 q 391 123 370 102 q 412 186 412 144 m 328 372 q 419 348 374 372 q 489 279 463 323 q 514 186 514 234 q 489 93 514 137 q 420 24 465 49 q 328 0 376 0 q 235 24 279 0 q 166 93 191 49 q 142 186 142 137 q 167 279 142 234 q 236 348 192 323 q 328 372 281 372 m 653 557 q 720 506 720 557 q 653 455 720 455 l 144 455 q 70 506 70 455 q 144 557 70 557 l 653 557 z "},"ៗ":{"ha":1051,"x_min":170,"x_max":1000,"o":"m 231 51 q 298 102 231 102 l 515 102 q 672 136 614 102 q 744 238 729 170 l 880 884 q 618 746 695 746 q 460 831 543 746 q 339 916 378 916 q 281 831 299 916 q 277 795 277 810 q 318 746 277 746 q 373 695 373 746 q 323 644 373 644 q 194 690 231 644 q 170 771 170 721 q 177 831 170 798 q 237 970 197 924 q 340 1017 278 1017 q 497 932 415 1017 q 624 848 578 848 q 860 986 669 848 q 960 1017 892 1017 q 1000 974 1000 1017 q 996 943 1000 960 l 842 212 q 738 53 820 106 q 515 0 656 0 l 298 0 q 231 51 231 0 z "},"៘":{"ha":3534,"x_min":203,"x_max":3501,"o":"m 407 1017 q 475 966 475 1017 q 407 916 475 916 q 330 890 356 916 q 305 814 305 865 q 339 737 305 763 q 441 712 373 712 q 677 778 576 712 q 801 956 777 843 q 865 1017 814 1017 q 905 974 905 1017 q 901 943 905 960 l 714 58 q 650 -1 701 -1 q 610 45 610 -1 q 614 77 610 59 l 745 697 q 441 610 623 610 q 256 661 309 610 q 203 814 203 712 q 254 966 203 916 q 407 1017 305 1017 m 1227 274 l 1198 180 q 1191 142 1191 157 q 1194 122 1191 130 q 1224 102 1202 102 q 1287 144 1248 102 q 1335 226 1326 186 q 1336 239 1336 233 q 1331 259 1336 250 q 1299 279 1322 272 q 1278 281 1290 281 q 1227 274 1257 281 m 1224 0 q 1104 54 1139 0 q 1085 125 1085 83 q 1099 203 1085 160 l 1249 688 q 1385 935 1298 853 q 1598 1017 1472 1017 q 1793 932 1729 1017 q 1853 698 1853 853 l 1853 677 l 1847 408 l 1847 384 q 1883 178 1847 249 q 2005 102 1923 102 q 2184 212 2097 102 q 2317 543 2271 322 l 2338 636 q 2195 734 2239 682 q 2161 819 2161 774 q 2163 845 2161 832 q 2231 974 2182 931 q 2357 1017 2281 1017 q 2526 955 2426 1017 q 2578 890 2578 922 q 2572 868 2578 879 q 2536 846 2560 846 q 2479 866 2513 846 q 2357 916 2397 916 q 2298 895 2323 916 q 2265 832 2274 873 q 2264 818 2264 825 q 2300 739 2264 782 q 2440 627 2344 688 l 2419 524 q 2251 131 2363 262 q 2003 0 2138 0 q 1807 102 1870 0 q 1747 382 1747 197 l 1747 406 l 1751 678 l 1751 694 q 1715 856 1751 801 q 1598 916 1676 916 q 1447 851 1510 916 q 1345 659 1383 787 l 1258 376 q 1293 378 1276 378 q 1351 370 1326 378 q 1418 316 1388 359 q 1439 246 1439 286 q 1435 208 1439 228 q 1357 69 1421 138 q 1224 0 1293 0 m 3003 1017 q 3071 966 3071 1017 q 3003 916 3071 916 q 2926 890 2952 916 q 2901 814 2901 865 q 2935 737 2901 763 q 3037 712 2969 712 q 3273 778 3172 712 q 3397 956 3373 843 q 3461 1017 3410 1017 q 3501 974 3501 1017 q 3497 943 3501 960 l 3310 58 q 3246 -1 3297 -1 q 3206 45 3206 -1 q 3210 77 3206 59 l 3341 697 q 3037 610 3219 610 q 2852 661 2905 610 q 2799 814 2799 712 q 2850 966 2799 916 q 3003 1017 2901 1017 z "},"៙":{"ha":1051,"x_min":203,"x_max":848,"o":"m 526 0 q 284 119 365 0 q 203 475 203 237 q 284 831 203 712 q 526 949 365 949 q 767 831 686 949 q 848 475 848 712 q 767 119 848 237 q 526 0 686 0 m 526 870 q 345 772 405 870 q 284 475 284 673 q 345 178 284 277 q 526 79 405 79 q 707 178 646 79 q 767 475 767 277 q 707 772 767 673 q 526 870 646 870 m 526 158 q 405 237 445 158 q 365 475 365 317 q 405 712 365 633 q 526 791 445 791 q 646 712 606 791 q 686 475 686 633 q 646 237 686 317 q 526 158 606 158 m 526 712 q 465 653 486 712 q 445 475 445 593 q 465 297 445 356 q 526 237 486 237 q 586 297 566 237 q 606 475 606 356 q 586 653 606 593 q 526 712 566 712 z "},"៚":{"ha":2374,"x_min":136,"x_max":2272,"o":"m 1947 365 q 1936 347 1936 353 q 1937 344 1936 345 q 1945 338 1940 338 q 1954 342 1949 338 q 1954 345 1954 343 q 1947 365 1954 350 m 1046 664 q 1088 753 1088 728 q 1083 767 1088 762 q 1051 783 1067 783 q 1015 760 1032 783 q 1010 744 1010 753 q 1038 676 1010 720 q 1046 664 1042 670 m 1235 298 q 1205 243 1205 260 q 1208 235 1205 238 q 1236 220 1221 220 q 1261 231 1248 220 q 1265 239 1265 233 q 1235 298 1265 257 m 1466 690 q 1493 737 1493 724 q 1491 742 1493 740 q 1469 755 1481 755 q 1449 747 1459 755 q 1445 739 1445 745 q 1466 690 1445 724 m 1619 317 q 1605 298 1605 302 q 1606 296 1605 297 q 1617 291 1611 291 q 1628 294 1622 291 q 1629 297 1629 295 q 1619 317 1629 302 m 1853 664 q 1870 685 1870 681 q 1869 686 1870 686 q 1862 689 1866 689 q 1849 683 1855 689 q 1847 680 1847 682 q 1853 664 1847 674 m 1971 500 q 2030 521 1999 513 q 2207 543 2108 543 q 2272 492 2272 543 q 2205 441 2272 441 l 2123 441 q 2020 418 2065 441 q 2040 367 2034 391 q 2045 331 2045 347 q 2013 264 2045 289 q 1940 235 1974 235 q 1929 236 1934 235 q 1854 284 1889 241 q 1828 351 1828 317 q 1830 371 1828 361 q 1890 452 1840 412 q 1868 484 1880 467 q 1846 513 1856 498 q 1777 454 1815 484 q 1687 379 1724 410 q 1708 331 1700 353 q 1719 275 1719 300 q 1691 215 1719 237 q 1616 186 1651 186 q 1604 186 1610 186 q 1527 238 1563 193 q 1512 285 1512 258 q 1535 358 1512 317 q 1563 398 1547 377 q 1505 475 1539 431 l 1458 533 q 1382 452 1425 495 q 1295 366 1331 404 q 1340 285 1324 321 q 1356 219 1356 248 q 1324 155 1356 178 q 1232 117 1276 117 q 1223 118 1227 117 q 1132 172 1175 122 q 1111 231 1111 197 q 1133 311 1111 266 q 1172 376 1147 341 q 1105 449 1143 408 q 1055 503 1078 477 q 947 362 1010 438 q 663 91 795 181 q 417 0 530 0 q 206 127 277 0 q 136 509 136 254 q 216 890 136 763 q 458 1017 297 1017 q 700 950 619 1017 q 780 749 780 883 q 722 528 780 611 q 545 414 663 444 q 519 410 531 410 q 475 446 485 410 q 472 464 472 456 q 519 511 472 498 q 638 590 598 532 q 678 744 678 648 q 623 872 678 829 q 458 916 568 916 q 293 814 348 916 q 238 513 238 713 l 238 509 q 283 203 238 305 q 418 102 328 102 q 617 180 507 102 q 858 416 727 259 q 991 585 939 514 q 937 682 955 637 q 920 759 920 724 q 949 836 920 804 q 1049 895 999 894 l 1050 895 q 1149 838 1099 895 q 1174 766 1174 810 q 1148 663 1174 722 q 1108 585 1133 627 q 1173 514 1137 552 q 1231 449 1204 480 q 1306 528 1264 486 q 1400 619 1361 579 q 1363 704 1378 659 q 1352 762 1352 736 q 1385 833 1352 808 q 1472 867 1432 867 q 1482 867 1477 867 q 1567 812 1528 861 q 1584 758 1584 789 q 1559 673 1584 722 q 1521 611 1544 644 q 1576 541 1545 580 q 1630 470 1606 504 q 1701 534 1661 500 q 1786 604 1751 574 q 1763 661 1770 635 q 1756 701 1756 682 q 1788 764 1756 741 q 1861 793 1826 793 q 1873 792 1867 793 q 1950 741 1914 787 q 1967 694 1967 721 q 1943 624 1967 663 q 1910 579 1930 603 q 1942 538 1925 561 q 1971 500 1958 519 z "},"៛":{"ha":745,"x_min":136,"x_max":779,"o":"m 443 505 l 236 528 q 186 547 202 532 q 174 578 174 559 q 174 586 174 582 q 195 622 177 612 q 232 630 210 630 q 247 629 239 630 l 465 604 q 471 656 471 631 q 456 736 471 698 q 372 850 433 798 q 261 905 320 895 q 202 965 202 916 l 202 966 q 270 1017 202 1017 l 779 1017 q 507 916 676 916 l 452 916 q 557 766 530 850 q 573 666 573 719 q 566 593 573 631 l 671 581 q 721 534 721 576 q 720 525 721 530 q 666 481 715 481 q 651 481 659 481 l 545 494 l 490 247 q 405 38 443 76 q 306 0 366 0 q 187 35 238 0 q 136 169 136 71 q 172 347 136 288 q 283 407 210 407 q 339 356 339 407 q 284 305 339 305 q 249 271 261 305 q 237 170 237 238 q 259 113 237 123 q 306 102 280 102 q 393 282 345 102 l 443 505 z "},"០":{"ha":1017,"x_min":211,"x_max":973,"o":"m 405 975 q 448 996 405 975 q 629 1017 492 1017 q 888 879 765 1017 q 973 628 973 783 q 956 477 973 558 q 808 106 901 213 q 549 0 715 0 l 547 0 q 269 93 382 0 q 211 304 211 140 q 265 731 211 463 q 405 975 317 933 m 365 716 q 310 300 310 440 q 343 163 310 191 q 543 101 419 102 q 736 180 667 101 q 853 481 806 260 q 869 622 869 559 q 812 810 869 741 q 607 916 723 916 q 464 890 525 916 q 365 716 403 865 z "},"១":{"ha":1017,"x_min":180,"x_max":954,"o":"m 485 753 q 519 768 503 768 q 554 748 538 768 q 596 644 596 692 q 561 559 596 598 q 389 475 488 476 q 227 594 290 475 q 180 762 180 684 q 184 811 180 787 q 306 964 205 910 q 551 1017 407 1017 q 833 910 694 1017 q 954 695 951 819 l 954 691 q 909 429 954 566 q 619 126 844 252 q 340 0 395 0 q 286 51 286 0 q 326 102 286 102 q 566 213 366 102 q 818 471 765 324 q 850 665 850 574 l 850 676 q 760 835 846 769 q 545 917 653 917 q 366 879 436 917 q 283 784 295 842 q 281 757 281 771 q 311 652 281 710 q 395 577 349 577 q 470 610 441 577 q 486 646 486 628 q 473 682 486 663 q 462 712 462 697 q 485 753 462 733 z "},"២":{"ha":1565,"x_min":-136,"x_max":1415,"o":"m 697 541 l 697 534 q 652 484 697 491 q 641 483 646 483 q 595 535 602 483 q 591 591 591 566 q 612 694 591 656 q 709 747 640 747 q 844 706 777 747 q 977 583 911 665 q 1085 705 1034 664 q 1183 746 1137 746 q 1274 711 1230 746 q 1359 606 1318 676 q 1411 472 1400 536 q 1415 423 1415 448 q 1404 350 1415 386 l 1367 233 q 1212 59 1331 117 q 892 0 1093 1 q 610 24 731 0 q 433 96 488 48 q 352 203 377 144 q 332 310 332 252 q 332 335 332 322 q 341 549 341 452 q 335 694 341 629 q 279 915 321 840 q 151 1031 236 990 q -62 1081 66 1073 q -136 1133 -136 1086 l -136 1137 q -64 1185 -131 1185 l -58 1185 q 206 1121 100 1173 q 364 975 312 1069 q 435 719 417 881 q 444 528 444 633 q 437 326 444 434 q 436 310 436 318 q 507 165 436 224 q 644 117 545 134 q 901 101 742 101 l 906 101 q 1154 144 1062 101 q 1274 277 1247 189 l 1301 365 q 1310 424 1310 394 q 1273 548 1310 484 q 1182 644 1219 644 q 1055 515 1145 644 q 979 473 1024 473 q 899 516 933 473 q 742 644 798 644 q 703 618 714 644 q 695 573 695 602 q 697 541 695 558 z "},"៣":{"ha":1805,"x_min":189,"x_max":1706,"o":"m 426 366 q 465 394 439 394 q 503 381 481 394 q 602 286 578 342 q 614 225 614 258 q 601 152 614 191 q 534 38 576 76 q 433 0 492 0 q 342 27 389 0 q 248 111 296 55 q 191 268 199 166 q 189 312 189 289 q 214 516 189 399 q 292 763 245 663 q 401 914 338 862 q 531 991 463 966 q 673 1017 599 1017 q 840 947 753 1017 q 1019 736 927 877 q 1238 947 1140 878 q 1413 1018 1337 1018 q 1548 979 1489 1018 q 1650 865 1607 941 q 1703 699 1693 788 q 1706 637 1706 669 q 1692 507 1706 576 l 1598 58 q 1531 0 1584 0 q 1493 42 1493 0 q 1497 74 1493 56 l 1591 522 q 1605 644 1605 587 q 1603 680 1605 663 q 1567 806 1597 751 q 1497 888 1535 861 q 1414 916 1459 916 q 1284 855 1362 916 q 1103 674 1206 795 q 1055 538 1074 640 l 950 61 q 884 0 936 0 q 846 41 846 0 q 850 75 846 55 l 945 548 q 952 604 952 578 q 930 686 952 652 q 790 858 854 801 q 671 916 725 916 q 564 895 616 916 q 465 836 513 876 q 379 713 416 795 q 315 504 342 629 q 291 311 291 389 l 291 296 q 326 177 294 214 q 434 102 391 102 q 503 178 477 102 q 509 217 509 199 q 505 243 509 231 q 465 287 496 271 q 419 342 419 311 q 426 366 419 353 z "},"៤":{"ha":1191,"x_min":112,"x_max":1050,"o":"m 1023 517 q 996 509 1008 509 q 946 544 968 509 q 899 576 927 576 q 840 553 870 576 q 810 475 810 530 q 909 351 810 439 q 1007 170 1007 267 q 1002 124 1007 147 q 774 -1 975 -1 l 639 0 q 237 87 355 0 q 154 277 154 150 q 168 393 154 330 q 287 697 199 557 q 380 1021 376 838 l 380 1024 q 162 1218 380 1097 q 112 1275 112 1242 q 117 1297 112 1286 q 159 1326 131 1326 q 203 1314 178 1326 q 485 1022 485 1162 q 484 1013 485 1017 q 374 640 474 802 q 265 372 299 526 q 255 288 255 326 q 309 160 255 201 q 642 102 387 102 l 778 102 q 903 144 893 102 q 905 167 905 155 q 852 269 905 220 q 709 477 709 392 q 772 630 709 582 q 898 678 836 678 q 1038 589 987 678 q 1050 554 1050 570 q 1023 517 1050 532 z "},"៥":{"ha":1191,"x_min":172,"x_max":1119,"o":"m 467 882 q 476 913 476 901 q 391 1017 476 1017 q 305 949 305 1017 q 391 882 305 882 l 467 882 m 572 882 q 761 932 685 885 q 872 1169 842 983 q 1051 1356 902 1356 q 1119 1305 1119 1356 q 1050 1255 1119 1255 q 968 1148 988 1255 q 821 850 934 921 q 549 780 707 780 l 522 780 q 519 775 520 778 q 390 612 473 705 q 283 372 317 526 q 273 288 273 326 q 326 160 273 201 q 660 102 404 102 l 795 102 q 920 144 911 102 q 922 167 922 155 q 869 269 922 220 q 726 477 726 392 q 789 610 726 562 q 916 658 853 658 q 1055 569 1004 658 q 1067 534 1067 549 q 1041 497 1067 511 q 1013 489 1026 489 q 964 524 985 489 q 916 555 945 555 q 858 532 888 555 q 827 475 827 509 q 926 351 827 439 q 1025 170 1025 267 q 1019 124 1025 147 q 792 -1 992 -1 l 656 0 q 255 87 372 0 q 172 277 172 150 q 186 393 172 330 q 315 682 216 570 q 399 780 365 736 l 389 780 q 203 949 203 780 q 391 1119 203 1119 q 576 914 576 1119 q 572 882 576 899 z "},"៦":{"ha":1051,"x_min":-68,"x_max":949,"o":"m 319 408 q 334 374 334 390 q 313 340 334 355 q 296 302 296 326 q 332 205 296 265 q 533 102 394 102 q 760 309 672 102 q 847 630 847 515 l 847 632 q 803 764 847 747 q 686 781 758 780 q 513 764 614 781 q 355 746 413 747 q 235 836 296 746 q 132 1090 174 927 q 1 1255 91 1255 q -68 1306 -67 1255 q 1 1356 -68 1356 q 218 1160 169 1356 q 309 906 268 964 q 375 848 351 848 q 502 865 399 848 q 686 881 600 881 l 692 881 q 866 849 781 881 q 949 657 949 817 l 949 654 q 844 246 948 492 q 538 0 739 0 q 236 168 336 1 q 188 309 188 249 q 241 412 188 372 q 281 429 262 429 q 319 408 302 429 z "},"៧":{"ha":1199,"x_min":149,"x_max":1196,"o":"m 282 302 l 256 180 q 252 143 252 158 q 255 121 252 130 q 283 102 261 102 q 346 144 307 102 q 393 226 385 186 q 395 235 395 231 q 382 260 395 249 q 334 286 368 275 l 282 302 m 1007 547 q 1009 570 1009 561 q 1004 622 1009 587 q 973 698 998 656 q 921 760 948 741 q 869 780 895 780 l 767 656 q 701 618 733 618 q 631 666 669 618 l 564 751 q 469 814 508 814 q 402 755 433 795 q 357 647 372 714 l 304 401 l 372 381 q 477 316 447 359 q 498 246 498 286 q 494 208 498 228 q 416 69 479 138 q 283 0 351 0 q 167 51 198 0 q 149 129 149 81 q 157 203 149 161 l 256 661 q 324 822 276 758 q 450 916 373 886 l 468 916 q 634 825 555 916 l 702 742 l 762 812 q 874 882 821 882 q 977 845 928 882 q 1053 764 1020 813 l 1085 917 q 1094 990 1094 956 q 1048 1133 1094 1071 q 701 1249 983 1221 q 647 1296 647 1253 q 648 1305 647 1300 q 702 1351 653 1351 q 713 1350 707 1351 q 1128 1195 1035 1321 q 1196 988 1196 1105 q 1185 891 1196 942 l 1105 515 q 1101 498 1103 507 l 1070 353 l 1061 312 l 1008 63 q 985 16 1001 31 q 943 0 968 0 q 907 20 916 0 q 903 45 903 31 q 907 81 903 61 l 966 353 l 1007 547 z "},"៨":{"ha":1187,"x_min":156,"x_max":1251,"o":"m 859 408 q 896 429 876 429 q 937 412 915 429 q 1002 315 986 376 q 1010 254 1010 287 q 1000 170 1010 215 q 941 43 981 85 q 838 0 901 0 q 744 43 796 0 q 629 171 692 85 q 496 43 555 85 q 397 -1 438 -1 q 244 67 313 -1 q 159 269 176 135 q 156 334 156 298 q 197 645 156 456 q 318 835 227 789 q 468 881 410 881 l 469 881 q 683 833 528 881 q 797 814 747 814 q 909 906 836 814 q 964 1009 950 964 q 1044 1172 989 1123 q 1182 1221 1098 1221 q 1251 1171 1251 1221 q 1183 1120 1251 1120 q 1105 1078 1138 1119 q 1059 989 1072 1037 q 983 836 1044 927 q 800 710 899 710 q 659 736 738 711 q 467 781 505 781 q 374 747 433 780 q 296 626 316 715 q 258 341 258 448 q 261 291 258 313 q 315 142 273 181 q 395 102 356 102 q 542 230 435 102 q 628 272 576 272 l 629 272 q 713 229 682 272 q 843 102 807 102 q 901 199 880 102 q 907 246 907 224 q 864 340 907 307 q 844 374 844 355 q 859 408 844 390 z "},"៩":{"ha":1017,"x_min":160,"x_max":1117,"o":"m 643 313 q 680 334 660 334 q 721 317 699 334 q 789 201 789 267 q 768 120 789 163 q 494 0 707 0 l 490 0 q 239 67 307 0 q 162 201 170 135 q 160 233 160 216 q 184 410 160 299 q 427 625 213 551 q 273 819 273 735 q 275 838 273 828 q 375 972 294 928 q 520 1017 456 1017 l 522 1017 q 673 950 585 1017 q 805 882 763 882 q 880 1033 849 882 q 1048 1221 918 1221 q 1117 1171 1117 1221 q 1048 1120 1116 1120 q 979 1015 1002 1119 q 808 780 928 780 q 639 849 729 781 q 515 917 549 917 q 431 889 481 916 q 375 827 382 861 q 374 823 374 825 q 460 725 374 789 q 623 634 545 667 l 734 587 q 774 538 774 569 q 770 517 774 528 q 730 486 759 486 q 695 494 715 486 l 583 542 q 544 549 566 549 q 467 533 511 549 q 279 374 300 475 q 262 247 262 292 q 263 228 262 237 q 309 142 267 181 q 497 102 351 102 q 669 154 644 102 q 678 189 678 172 q 648 245 678 220 q 628 279 628 260 q 643 313 628 295 z "},"​":{"ha":7,"x_min":0,"x_max":0,"o":""},"‌":{"ha":1023,"x_min":0,"x_max":0,"o":""},"◌":{"ha":648,"x_min":54,"x_max":673,"o":"m 631 454 l 570 412 q 529 465 544 457 l 528 465 q 494 487 507 480 l 536 544 q 600 498 581 515 l 601 496 q 631 454 621 469 m 433 586 l 422 518 q 368 524 385 524 q 311 518 346 524 l 298 586 q 366 594 339 594 q 433 586 395 594 m 665 366 q 673 304 673 335 q 665 240 673 273 l 594 251 q 600 302 600 288 q 594 355 600 323 l 665 366 m 631 153 q 583 92 600 107 l 582 92 q 563 79 579 90 q 536 62 547 69 l 494 119 q 547 159 534 144 q 570 194 566 187 l 631 153 m 240 487 q 187 448 194 461 l 179 437 q 164 412 171 425 l 103 454 q 149 513 133 498 q 198 544 156 518 l 240 487 m 141 251 l 68 240 q 68 366 54 302 l 141 355 q 134 302 134 336 q 141 251 134 271 m 433 20 q 366 14 406 14 q 298 20 328 14 l 311 90 q 368 83 346 83 q 422 90 385 83 l 433 20 m 240 119 l 198 62 q 134 110 145 96 l 133 110 l 103 153 l 164 194 q 205 142 193 152 q 240 119 210 138 z "}}}
